<svg xmlns="http://www.w3.org/2000/svg" style="display: none;">
  
    <symbol id="icon-menu" viewBox="0 0 512 512">
      <path d="m18 82l471 0c9 0 16-7 16-16 0-9-7-16-16-16l-471 0c-9 0-16 7-16 16 0 9 7 16 16 16z m471 158l-471 0c-9 0-16 7-16 16 0 9 7 17 16 17l471 0c9 0 16-8 16-17 0-9-7-16-16-16z m0 191l-471 0c-9 0-16 7-16 16 0 9 7 17 16 17l471 0c9 0 16-8 16-17 0-9-7-16-16-16z"/>
    </symbol>

    <symbol id="icon-close" viewBox="0 0 512 512">
        <path d="m273 256l133-133c4-5 4-12 0-17-5-4-12-4-17 0l-133 133-133-133c-5-4-12-4-17 1-4 4-4 11 0 16l133 133-133 133c-4 4-4 12 0 17 5 4 12 4 17 0 0 0 0 0 0 0l133-133 133 133c5 4 12 4 17-1 4-4 4-12 0-16z"/>
    </symbol>
  
    <symbol id="icon-account" viewBox="0 0 512 512">
      <path d="m267 270c60 0 110-49 110-110 0-61-50-110-110-110-61 0-110 49-110 110 0 61 49 110 110 110z m0-28c-46 0-82-37-82-82 0-45 36-82 82-82 45 0 82 37 82 82 0 45-37 82-82 82z m216 183c-11-87-53-135-135-140-3 0-6 0-8 2-22 15-47 22-73 22-27 0-52-7-73-22-3-2-6-2-9-2-82 5-123 53-135 140-1 8 6 16 14 16l405 0c9 0 15-8 14-16z m-403-12c12-63 43-95 102-100 25 16 54 24 85 24 30 0 59-8 84-24 59 5 90 37 102 100z"/>
    </symbol>
  
    <symbol id="icon-calculator" viewBox="0 0 512 512">
      <path d="m384 54c23 0 42 19 42 42l0 336c0 23-19 42-42 42l-240 0c-23 0-42-19-42-42l0-336c0-23 19-42 42-42z m0 20l-240 0c-12 0-22 10-22 22l0 336c0 12 10 22 22 22l240 0c12 0 22-10 22-22l0-336c0-12-10-22-22-22z m-176 294l0 48-48 0 0-48z m80 0l0 48-48 0 0-48z m80 0l0 48-48 0 0-48z m-160-80l0 48-48 0 0-48z m80 0l0 48-48 0 0-48z m80 0l0 48-48 0 0-48z m-160-80l0 48-48 0 0-48z m80 0l0 48-48 0 0-48z m80 0l0 48-48 0 0-48z m0-96l0 48-208 0 0-48z"/>
    </symbol>
  
    <symbol id="icon-cart" viewBox="0 0 512 512">
      <path d="m373 347c-25 0-46 21-46 47 0 26 21 47 46 47 26 0 46-21 46-47 0-26-20-47-46-47z m-153 0c-26 0-46 21-46 47 0 26 20 47 46 47 25 0 46-21 46-47 0-26-21-47-46-47z m153 28c10 0 18 8 18 19 0 10-8 19-18 19-10 0-18-9-18-19 0-11 8-19 18-19z m-153 0c10 0 18 8 18 19 0 10-8 19-18 19-10 0-18-9-18-19 0-11 8-19 18-19z m-167-304c-7 0-14 7-14 14 0 8 7 14 14 14l40 0 74 227c2 6 7 10 13 10l230 0c5 0 11-4 13-10l59-165c4-9-3-18-13-18l-278 0c-8 0-14 6-14 14 0 7 6 14 14 14l259 0-50 137-210 0-73-227c-2-6-8-10-14-10z"/>
    </symbol>
  
    <symbol id="icon-chat" viewBox="0 0 512 512">
      <path d="m290 108c66 0 121 54 121 120-1 36-17 69-45 91l-2 2-84 78c-5 5-13 7-20 4-6-3-11-9-11-16l0-2 0-40 0 0 0 0-30 0c-32 0-63-13-85-37-22-23-34-55-32-87 4-64 56-113 118-113z m0 15l-70 0c-55 0-100 43-104 98-1 29 9 56 29 77 19 20 44 32 72 32l2 0 30 0c8 0 14 6 14 14l0 1 0 40c0 2 1 3 3 4 1 1 3 1 4 0l0-1 84-78 1-1c25-19 40-49 41-81 0-58-48-105-106-105z m-111 68c15 0 27 12 27 27 0 14-12 26-27 26-14 0-26-12-26-26 0-15 12-27 26-27z m77 0c15 0 27 12 27 27 0 14-12 26-27 26-15 0-27-12-27-26 0-15 12-27 27-27z m77 0c14 0 26 12 26 27 0 14-12 26-26 26-15 0-27-12-27-26 0-15 12-27 27-27z m-154 15c-6 0-12 5-12 12 0 6 6 11 12 11 7 0 12-5 12-11 0-7-5-12-12-12z m77 0c-7 0-12 5-12 12 0 6 5 11 12 11 7 0 12-5 12-11 0-7-5-12-12-12z m77 0c-7 0-12 5-12 12 0 6 5 11 12 11 6 0 12-5 12-11 0-7-6-12-12-12z"/>
    </symbol>
  
    <symbol id="icon-chevron-down-sm" viewBox="0 0 512 512">
      <path d="m256 258l-54-54c-6-6-14-6-20 0-5 5-5 14 0 19l64 64c6 5 14 5 20 0l64-64c5-5 5-14 0-19-6-6-14-6-20 0z"/>
    </symbol>
  
    <symbol id="icon-chevron-left" viewBox="0 0 512 512">
      <path d="m331 116c5-6 4-15-2-20-6-5-15-4-20 2l-128 149c-4 5-4 13 0 18l128 149c5 6 14 7 20 2 6-5 7-14 2-20l-121-140z"/>
    </symbol>
  
    <symbol id="icon-chevron-right" viewBox="0 0 512 512">
      <path d="m181 396c-5 6-4 15 2 20 6 5 15 4 20-2l128-149c4-5 4-13 0-18l-128-149c-5-6-14-7-20-2-6 5-7 14-2 20l121 140z"/>
    </symbol>
  
    <symbol id="icon-chevron-right-sm" viewBox="0 0 512 512">
      <path d="m268 245l-54 55c-5 5-5 14 0 19 6 5 14 5 20 0l64-64c5-5 5-14 0-19l-64-64c-6-6-14-6-20 0-5 5-5 14 0 19z"/>
    </symbol>
  
    <symbol id="icon-error" viewBox="0 0 512 512">
      <path d="m256 93c90 0 163 73 163 163 0 90-73 163-163 163-90 0-163-73-163-163 0-90 73-163 163-163z m0 28c-75 0-135 60-135 135 0 75 60 135 135 135 75 0 135-60 135-135 0-75-60-135-135-135z m52 75c5 5 6 12 2 18l-2 2-32 32 32 33c5 5 6 13 2 18l-2 2c-4 5-12 5-17 1l-2-1-33-33-33 33c-5 5-12 5-18 1l-1-1c-5-5-6-13-2-18l2-2 32-33-32-32c-5-5-6-13-2-18l2-2c4-5 12-5 17-1l2 1 33 33 33-33c5-5 14-5 19 0z"/>
    </symbol>
  
    <symbol id="icon-facebook" viewBox="0 0 512 512">
      <path d="m226 427l65 0 0-162 45 0 5-54-50 0c0 0 0-20 0-30 0-13 3-18 15-18 10 0 35 0 35 0l0-56c0 0-37 0-45 0-48 0-70 21-70 61 0 35 0 43 0 43l-34 0 0 55 34 0 0 161"/>
    </symbol>
  
    <symbol id="icon-help" viewBox="0 0 512 512">
      <path d="m256 0c141 0 256 115 256 256 0 141-115 256-256 256-141 0-256-115-256-256 0-141 115-256 256-256z m-6 359c-9 0-16 2-20 7-5 5-7 11-7 19 0 7 2 13 7 17 4 5 11 8 20 8 9 0 16-3 21-8 5-4 7-10 7-17 0-8-2-14-7-19-5-5-12-7-21-7z m7-308c-30 0-55 8-74 24-19 16-29 37-29 63l46 0c0-14 6-26 16-35 10-8 24-13 41-13 18 0 32 5 41 15 9 9 14 22 14 39 0 18-7 34-22 49l-33 33c-13 13-21 26-25 37-5 11-7 26-7 45l47 0c0-24 6-43 18-56l27-26c28-27 41-55 41-83 0-29-8-51-26-67-18-17-43-25-75-25z"/>
    </symbol>
  
    <symbol id="icon-youtube" viewBox="0 0 512 512">
      <path d="m256 171c6 0 94 0 117 5 13 4 23 13 26 25 6 19 6 58 6 65l0 2c0 6 0 45-6 65-3 11-13 21-26 24-21 5-95 6-113 6l-8 0c-18 0-92-1-113-6-13-3-23-13-26-24-6-20-6-59-6-65l0-2c0-7 0-46 6-65 3-12 13-21 26-25 24-5 117-5 117-5z m-21 64l0 64 64-32z"/>
    </symbol>

    <symbol id="icon-warning" viewBox="0 0 512 512">
        <path d="m256 66c-105 0-190 85-190 190 0 105 85 190 190 190 105 0 190-85 190-190 0-105-85-190-190-190z m0 350c-89 0-160-71-160-160 0-89 71-160 160-160 89 0 160 71 160 160 0 89-71 160-160 160z m0-252c-8 0-15 7-15 15l0 96c0 8 7 14 15 14 8 0 15-6 15-14l0-96c0-8-7-15-15-15z m20 164c0 11-9 20-20 20-11 0-20-9-20-20 0-11 9-20 20-20 11 0 20 9 20 20z"/>
    </symbol>
  
    <symbol id="icon-shipping" viewBox="0 0 512 512">
      <path d="m272 134c5 0 10 3 10 8l0 2 0 110 18 0 0-53c0-10 7-18 17-19l2 0 53 0c4 0 8 1 12 4l1 1 68 67c3 3 5 7 5 12l0 2 0 75c0 10-7 18-17 19l-2 0-46 0c-5 19-21 32-41 32-23 0-41-17-42-40l-70 0c-2 0-4 0-6-1l0-1c0 23-19 42-42 42-20 0-36-13-41-32l-30 0c-10 0-18-7-19-17l0-2 0-70c0-10 7-18 17-19l2 0 13 0 0-110c0-5 3-10 8-10l2 0z m-80 196c-11 0-19 8-21 18 0 1 0 3 0 4 0 1 0 3 0 4 2 10 10 18 21 18 12 0 22-10 22-22 0-12-10-22-22-22z m160 0c-12 0-22 10-22 22 0 12 10 22 22 22 12 0 22-10 22-22 0-12-10-22-22-22z m19-128l-51 0 0 53c0 10-7 18-17 19l-2 0-179 0 0 68 29 0c5-19 21-32 41-32 18 0 34 11 40 28 1-2 4-4 6-4l2 0 74 0c7-15 21-24 38-24 20 0 36 13 41 32l45 0 0-74z m-109-48l-108 0 0 100 108 0z m-166 68c6 0 10 4 10 10 0 6-4 10-10 10l-48 0c-6 0-10-4-10-10 0-6 4-10 10-10z m-80-40l80 0c6 0 10 4 10 10 0 5-3 10-8 10l-2 0-80 0c-6 0-10-4-10-10 0-5 3-10 8-10l2 0 80 0z m80-40c6 0 10 4 10 10 0 5-3 10-8 10l-2 0-48 0c-6 0-10-4-10-10 0-5 3-10 8-10l2 0z"/>
    </symbol>
  
    <symbol id="icon-search" viewBox="0 0 512 512">
      <path d="m245 93c73 0 132 59 132 131 0 37-16 70-40 94l70 70c6 5 6 14 0 19-5 6-14 6-19 0l-73-72c-20 13-44 20-70 20-72 0-131-59-131-131 0-72 59-131 131-131z m0 28c-57 0-103 46-103 103 0 57 46 103 103 103 57 0 104-46 104-103 0-57-47-103-104-103z"/>
    </symbol>
  
    <symbol id="icon-pse" viewBox="0 0 512 512">
      <path d="m375 60c13 0 23-9 23-20 0-11-10-20-23-20-12 0-22 9-22 20 0 11 10 20 22 20m1 372c13 0 24 11 24 24 0 13-11 24-24 24-13 0-24-11-24-24 0-13 11-24 24-24z m-104 0c9 0 16 7 16 16 0 9-7 16-16 16-9 0-16-7-16-16 0-9 7-16 16-16z m-80 0c9 0 16 7 16 16 0 9-7 16-16 16-9 0-16-7-16-16 0-9 7-16 16-16z m216-64c13 0 24 11 24 24 0 13-11 24-24 24-13 0-24-11-24-24 0-13 11-24 24-24z m-88 0c9 0 16 7 16 16 0 9-7 16-16 16-9 0-16-7-16-16 0-9 7-16 16-16z m-80 0c9 0 16 7 16 16 0 9-7 16-16 16-9 0-16-7-16-16 0-9 7-16 16-16z m-96 0c9 0 16 7 16 16 0 9-7 16-16 16-9 0-16-7-16-16 0-9 7-16 16-16z m-56 16c4 0 8 4 8 8 0 4-4 8-8 8-4 0-8-4-8-8 0-4 4-8 8-8z m184-80c9 0 16 7 16 16 0 9-7 16-16 16-9 0-16-7-16-16 0-9 7-16 16-16z m-176 0c9 0 16 7 16 16 0 9-7 16-16 16-9 0-16-7-16-16 0-9 7-16 16-16z m-56 16c4 0 8 4 8 8 0 4-4 8-8 8-4 0-8-4-8-8 0-4 4-8 8-8z m152-16c9 0 16 7 16 16 0 9-7 16-16 16-9 0-16-7-16-16 0-9 7-16 16-16z m95-144c9 0 16 6 19 14l90 0 43 66 105 0 0 12-64 0-41 70-45 0c-2 8-10 14-18 14-11 0-20-9-20-20 0-11 9-19 20-19 8 0 16 5 18 13l40 0 34-58-205 0c-3 9-10 15-19 15-11 0-20-9-20-20 0-11 9-19 20-19 8 0 15 5 18 12l163 0-35-54-84 0c-3 8-10 13-19 13-10 0-19-8-19-19 0-11 9-20 19-20z m-207 64c9 0 16 7 16 16 0 9-7 16-16 16-9 0-16-7-16-16 0-9 7-16 16-16z m-72 16c4 0 8 4 8 8 0 4-4 8-8 8-4 0-8-4-8-8 0-4 4-8 8-8z m136-16c9 0 16 7 16 16 0 9-7 16-16 16-9 0-16-7-16-16 0-9 7-16 16-16z m-48-64c9 0 16 7 16 16 0 9-7 16-16 16-9 0-16-7-16-16 0-9 7-16 16-16z m-56 16c4 0 8 4 8 8 0 4-4 8-8 8-4 0-8-4-8-8 0-4 4-8 8-8z m152-16c9 0 16 7 16 16 0 9-7 16-16 16-9 0-16-7-16-16 0-9 7-16 16-16z m232-80c13 0 24 11 24 24 0 13-11 24-24 24-13 0-24-11-24-24 0-13 11-24 24-24z m-112 0c13 0 24 11 24 24 0 13-11 24-24 24-13 0-24-11-24-24 0-13 11-24 24-24z m-168 0c9 0 16 7 16 16 0 9-7 16-16 16-9 0-16-7-16-16 0-9 7-16 16-16z m-56 16c4 0 8 4 8 8 0 4-4 8-8 8-4 0-8-4-8-8 0-4 4-8 8-8z m152-16c9 0 16 7 16 16 0 9-7 16-16 16-9 0-16-7-16-16 0-9 7-16 16-16z m-48-48c9 0 16 7 16 16 0 9-7 16-16 16-9 0-16-7-16-16 0-9 7-16 16-16z m80 0c9 0 16 7 16 16 0 9-7 16-16 16-9 0-16-7-16-16 0-9 7-16 16-16z"/>
    </symbol>
  
    <symbol id="icon-pinteres" viewBox="0 0 512 512">
      <path d="m185 279c4 2 8 0 9-4 1-3 2-11 3-14 1-4 1-5-2-9-7-8-12-19-12-34 0-43 33-82 86-82 47 0 72 28 72 66 0 49-22 91-55 91-18 0-32-15-27-33 5-22 15-45 15-61 0-14-8-26-23-26-19 0-34 19-34 45 0 16 6 27 6 27 0 0-19 79-23 93-6 28-1 62 0 65 0 2 3 3 4 1 2-2 24-29 31-56 2-7 13-47 13-47 6 12 23 22 42 22 56 0 94-51 94-118 0-51-44-98-110-98-83 0-125 58-125 107 0 29 12 56 36 65"/>
    </symbol>
  
    <symbol id="icon-payment-cards" viewBox="0 0 512 512">
      <path d="m300 121l2 3 14 20 38-9c27-6 54 10 62 38l1 3 24 111c6 28-10 55-36 63l-3 1-179 42c-3 1-7 1-10 1l-8 6c-23 17-55 13-73-9l-2-3-66-91c-17-23-13-55 9-73l3-2 151-110c23-17 55-13 73 9z m19 62c0 2-1 3-2 4l-1 1-197 150 28 38c10 14 29 18 43 9l3-2 6-4c1-3 4-5 7-5l138-101c14-10 18-29 9-44l-2-2z m90 54l-31 11c0 15-7 30-19 40l-3 2-102 74 143-33c16-4 27-20 24-37l0-3z m-109-81l-201 153-1 0 9 12 196-150c2-1 4-2 6-2z m-58-29l-3 2-151 110c-14 10-18 29-9 44l2 2 5 7 0 0 201-153c0 0 0 0 0 0l-2-3c-10-14-29-18-43-9z m159 76l-34 11 1 1c3 4 5 8 7 12l29-10z m-40-48l-2 0-29 7 25 34 42-14c0 0 0 0 0 0l-1-2c-3-17-19-28-35-25z"/>
    </symbol>
  
    <symbol id="icon-logout" viewBox="0 0 512 512">
      <path d="m186 102l190 0c7 0 12 5 13 12l0 2 0 277c0 7-5 13-11 14l-2 0-190 0c-7 0-13-5-14-12l0-2 0-44c0-8 6-14 14-14 7 0 13 5 14 12l0 2 0 30 162 0 0-249-162 0 0 31c0 8-6 14-14 14-7 0-13-5-14-12l0-2 0-45c0-7 5-13 12-14l2 0 190 0z m55 80c5-5 14-5 19 1l52 56c5 5 5 13 1 18l-52 64c-5 6-14 7-20 2-6-4-6-13-2-19l31-38-142 0c-8 0-14-6-14-14 0-7 5-12 12-13l2-1 146 0-34-37c-5-5-5-12-1-18z"/>
    </symbol>
  
    <symbol id="icon-location" viewBox="0 0 512 512">
      <path d="m264 118c-54 0-98 46-98 102 0 28 10 54 28 73l63 81c5 6 13 6 17 0l64-87c16-18 24-42 24-67 0-56-44-102-98-102z m2 233l-56-72c-15-16-24-37-24-59 0-45 35-82 78-82 43 0 78 37 78 82 0 20-7 40-20 54z m32-135c0 19-15 34-34 34-19 0-34-15-34-34 0-19 15-34 34-34 19 0 34 15 34 34z m-20 0c0-8-6-14-14-14-8 0-14 6-14 14 0 8 7 14 14 14 8 0 14-6 14-14z"/>
    </symbol>
  
    <symbol id="icon-instagram" viewBox="0 0 512 512">
      <path d="m256 128c-35 0-39 0-53 1-13 0-23 3-31 6-8 3-15 7-23 14-7 8-11 15-14 23-3 8-6 18-6 31-1 14-1 18-1 53 0 35 0 39 1 53 0 13 3 23 6 31 3 8 7 15 14 23 8 7 15 11 23 14 8 3 18 6 31 6 14 1 18 1 53 1 35 0 39 0 53-1 13 0 23-3 31-6 8-3 15-7 23-14 7-8 11-15 14-23 3-8 6-18 6-31 1-14 1-18 1-53 0-35 0-39-1-53 0-13-3-23-6-31-3-8-7-15-14-23-8-7-15-11-23-14-8-3-18-6-31-6-14-1-18-1-53-1m0 21c35 0 39 0 53 1 12 1 19 3 24 5 6 2 10 5 15 9 4 5 7 9 9 15 2 5 4 12 5 24 1 14 1 18 1 53 0 35 0 39-1 53-1 12-3 19-5 24-2 6-5 10-9 15-5 4-9 7-15 9-5 2-12 4-24 5-14 1-18 1-53 1-35 0-39 0-53-1-12-1-19-3-24-5-6-2-10-5-15-9-4-5-7-9-9-15-2-5-4-12-5-24-1-14-1-18-1-53 0-35 0-39 1-53 1-12 3-19 5-24 2-6 5-10 9-15 5-4 9-7 15-9 5-2 12-4 24-5 14-1 18-1 53-1m0 150c-24 0-43-19-43-43 0-24 19-43 43-43 24 0 43 19 43 43 0 24-19 43-43 43m0-107c-35 0-64 29-64 64 0 35 29 64 64 64 35 0 64-29 64-64 0-35-29-64-64-64m43 0c0-12 9-21 21-21 12 0 21 9 21 21 0 12-9 21-21 21-12 0-21-9-21-21"/>
    </symbol>
  
    <symbol id="icon-info" viewBox="0 0 512 512">
      <path d="m256 93c90 0 163 73 163 163 0 90-73 163-163 163-90 0-163-73-163-163 0-90 73-163 163-163z m0 28c-75 0-135 60-135 135 0 75 60 135 135 135 75 0 135-60 135-135 0-75-60-135-135-135z m0 92c8 0 14 6 14 14l0 112c0 8-6 14-14 14-8 0-14-6-14-14l0-112c0-8 6-14 14-14z m18-62c6 4 8 11 6 17l-1 2-11 18c-4 7-12 9-19 5-6-3-8-10-6-17l1-2 11-18c4-6 12-9 19-5z"/>
    </symbol>
  
    <symbol id="icon-download" viewBox="0 0 512 512">
      <path d="m395 350l-278 0c-8 0-12 6-12 15 0 8 6 15 12 15l278 0c8 0 15-7 15-15 0-9-7-15-15-15z m-141-49c2 2 6 2 8 2 5 0 7-2 9-4l55-52c7-4 7-14 0-19-4-6-15-6-19 0l-36 34 0-147c0-8-6-13-15-13-9 0-13 7-13 13l0 143-38-30c-7-4-15-4-19 2-5 7-5 15 2 20z"/>
    </symbol>
  
    <symbol id="icon-menu-1" viewBox="0 0 512 512">
      <path d="m18 82l471 0c9 0 16-7 16-16 0-9-7-16-16-16l-471 0c-9 0-16 7-16 16 0 9 7 16 16 16z m471 158l-471 0c-9 0-16 7-16 16 0 9 7 17 16 17l471 0c9 0 16-8 16-17 0-9-7-16-16-16z m0 191l-471 0c-9 0-16 7-16 16 0 9 7 17 16 17l471 0c9 0 16-8 16-17 0-9-7-16-16-16z"/>
    </symbol>
  
    <symbol id="icon-filters" viewBox="0 0 512 512">
      <path d="m192 249c-26 0-49-19-55-43l-30 0c-8 0-14-6-14-14 0-8 6-14 14-14l30 0c6-24 29-43 55-43 26 0 49 19 55 43l158 0c8 0 14 6 14 14 0 8-6 14-14 14l-158 0c-6 24-29 43-55 43z m0-28c14 0 26-11 28-24 0-2-1-3-1-5 0-2 1-3 1-5-2-13-14-24-28-24-16 0-29 13-29 29 0 16 13 29 29 29z m85 177c-26 0-48-18-54-43l-116 0c-8 0-14-6-14-14 0-7 6-14 14-14l116 0c6-24 28-42 54-42 27 0 49 18 55 42l73 0c8 0 14 7 14 14 0 8-6 14-14 14l-73 0c-6 25-28 43-55 43z m0-28c14 0 25-9 28-22-1-2-1-4-1-7 0-2 0-4 1-6-3-13-14-22-28-22-14 0-26 10-28 23 1 2 1 4 1 5 0 2 0 4-1 5 2 14 14 24 28 24z"/>
    </symbol>
  
    <symbol id="icon-chevron-down" viewBox="0 0 512 512">
      <path d="m108 174c-6-5-14-4-19 2-5 5-5 14 1 19l150 128c5 5 12 5 18 0l149-128c6-5 6-14 1-19-5-6-13-7-19-2l-140 120z"/>
    </symbol>
  
    <symbol id="icon-chevron-up" viewBox="0 0 512 512">
      <path d="m389 323c6 5 14 4 19-1 5-6 5-15-1-20l-149-128c-6-4-13-4-18 0l-150 128c-6 5-6 14-1 20 5 5 13 6 19 1l141-120z"/>
    </symbol>
  
    <symbol id="icon-minus" viewBox="0 0 512 512">
      <path d="m381 232l-271 0c-8 0-14 6-14 13 0 8 6 14 14 14l271 0c8 0 14-6 14-14 0-7-6-13-14-13z"/>
    </symbol>
  
    <symbol id="icon-plus" viewBox="0 0 512 512">
      <path d="m381 232c8 0 14 6 14 13 0 8-6 14-14 14l-122 0 0 122c0 7-5 13-11 14l-3 0c-7 0-13-6-13-14l0-122-122 0c-7 0-13-5-14-11l0-3c0-7 6-13 14-13l122 0 0-122c0-7 5-13 11-14l2 0c8 0 14 6 14 14l0 122z"/>
    </symbol>

    <symbol id="icon-success" viewBox="0 0 512 512">
        <path d="m207 252c-5-5-14-6-20-1-6 4-7 13-2 19l66 79c5 6 14 7 20 1l165-171c5-5 5-14-1-19-5-6-14-5-19 0l-154 160z m186-104c-20-22-45-38-74-48-91-29-189 21-219 112-29 91 21 189 112 219 91 30 189-20 219-112 10-30 11-62 4-93-2-7-9-12-17-10-7 2-12 9-10 17 6 25 5 52-3 78-25 77-108 119-185 94-76-25-118-108-93-185 25-76 107-118 184-93 24 7 45 21 62 39 5 6 14 6 20 1 5-5 6-14 0-19z"/>
    </symbol>

    <symbol id="icon-location-2" viewBox="0 0 512 512">
        <path d="m256 469c-4 0-8-2-11-6l-125-146c-11-13-20-27-25-41-20-53-12-112 20-159 32-47 84-74 141-74 57 0 109 27 141 74 33 47 40 106 20 159-5 14-13 28-25 41l-125 146c-2 4-7 6-11 6z m0-396c-47 0-90 23-117 61-26 39-32 88-16 131 4 11 11 22 19 32l114 134 114-134c0 0 0 0 0 0 9-10 15-21 19-32 17-43 10-92-16-131-27-38-70-61-117-61z m0 208c-37 0-66-30-66-66 0-37 29-67 66-67 37 0 67 30 67 67-1 36-30 66-67 66z m0-99c-18 0-33 14-33 33 0 18 15 33 33 33 18 0 33-15 33-33 0-19-15-33-33-33z"/>
    </symbol>

    <symbol id="icon-edit" viewBox="0 0 512 512">
        <path d="m341 392c8 0 14 6 14 13 0 8-6 14-14 14l-170 0c-8 0-14-6-14-14 0-7 6-13 14-13z m-33-316c25-24 65-33 85-13l13 13c21 20 16 56-8 79l-147 143c-1 2-3 3-4 3l-119 53c-11 5-23-7-18-18l48-113c1-1 2-3 3-4z m66 7c-8-8-31-2-47 13l-145 141-33 77 84-37 146-141c14-14 16-32 8-40z"/>
    </symbol>

    <symbol id="icon-success-filled" viewBox="0 0 512 512">
        <path d="m256 0c-141 0-256 115-256 256 0 141 115 256 256 256 141 0 256-115 256-256 0-141-115-256-256-256z m143 197l-170 170c-14 14-37 14-52 0l-64-65c-14-14-14-37 0-51 15-14 37-14 52 0l38 38 144-144c15-14 38-14 52 0 15 14 15 38 0 52z"/>
    </symbol>

    <symbol fill="none" viewBox="0 0 43 44" id="icon-addi-checkout" xmlns="http://www.w3.org/2000/svg">
      <path d="M21.5 42.945c11.874 0 21.5-9.55 21.5-21.331C43 9.833 33.374.282 21.5.282S0 9.832 0 21.614c0 11.78 9.626 21.331 21.5 21.331Z" fill="#213C65"/>
      <path fill-rule="evenodd" clip-rule="evenodd" d="M21.5 20.762a4.463 4.463 0 0 0-4.173 2.886v-5.611a4.175 4.175 0 0 1 4.173-4.178 4.176 4.176 0 0 1 4.173 4.178v5.61a4.463 4.463 0 0 0-4.173-2.885Zm4.173 6.063v8.496h6.01v-16.88c.005-.134.015-.268.015-.404 0-5.595-4.566-10.13-10.198-10.13-5.632 0-10.198 4.535-10.198 10.13V35.32h6.01v-8.55a4.462 4.462 0 0 0 8.334.112l.027-.058Z" fill="#fff"/>
    </symbol>

    <symbol fill="none" viewBox="0 0 44 44" id="icon-addi-payment" xmlns="http://www.w3.org/2000/svg">
      <path d="M20.703 34.48h2.503v-2.22a8.08 8.08 0 0 0 3.862-1.603c1.153-.875 1.73-2.203 1.73-3.982 0-1.283-.379-2.419-1.136-3.406-.757-.987-2.235-1.878-4.435-2.672-1.927-.658-3.207-1.228-3.84-1.71-.632-.482-.948-1.155-.948-2.02s.324-1.568.971-2.109c.648-.54 1.542-.81 2.682-.81.954 0 1.724.224 2.31.675a4.482 4.482 0 0 1 1.35 1.694l2.263-.91c-.383-.975-1.008-1.81-1.874-2.505-.866-.694-1.814-1.082-2.843-1.162V9.52h-2.504v2.22c-1.563.301-2.763.935-3.601 1.902-.838.968-1.257 2.042-1.257 3.225 0 1.377.417 2.485 1.252 3.324.834.84 2.194 1.598 4.079 2.274 1.948.715 3.28 1.356 3.993 1.924.713.567 1.07 1.33 1.07 2.286 0 1.15-.415 1.984-1.245 2.505-.83.52-1.766.78-2.81.78a4.45 4.45 0 0 1-2.77-.93c-.814-.62-1.44-1.528-1.877-2.722l-2.32.945c.475 1.361 1.157 2.442 2.047 3.244.89.801 2.006 1.358 3.348 1.67v2.314ZM22 39.418c-2.407 0-4.67-.458-6.789-1.374-2.118-.915-3.962-2.157-5.53-3.724-1.567-1.568-2.809-3.412-3.724-5.53-.916-2.12-1.373-4.382-1.373-6.789s.457-4.67 1.373-6.789c.915-2.119 2.157-3.962 3.725-5.53 1.567-1.567 3.41-2.809 5.53-3.724C17.33 5.04 19.593 4.583 22 4.583s4.67.458 6.789 1.374c2.119.915 3.962 2.157 5.53 3.724 1.567 1.568 2.809 3.412 3.724 5.53.916 2.12 1.374 4.382 1.374 6.789s-.458 4.67-1.373 6.789c-.916 2.118-2.158 3.962-3.725 5.53-1.568 1.567-3.411 2.809-5.53 3.724-2.12.916-4.382 1.374-6.789 1.374Z" fill="#0069B4"/>
    </symbol>

    <symbol fill="none" viewBox="0 0 44 44" id="icon-addi-shopping" xmlns="http://www.w3.org/2000/svg">
      <path d="M11.564 39.417c-.926 0-1.71-.321-2.351-.963-.642-.642-.963-1.425-.963-2.352V15.232c0-.926.32-1.71.963-2.352.641-.641 1.425-.962 2.351-.962h3.561v-.459c0-1.899.671-3.52 2.013-4.861C18.48 5.254 20.101 4.583 22 4.583c1.9 0 3.52.671 4.862 2.014 1.342 1.342 2.013 2.962 2.013 4.861v.459h3.56c.927 0 1.71.32 2.352.962.642.642.963 1.426.963 2.352v20.871c0 .927-.32 1.71-.963 2.352-.641.642-1.425.963-2.351.963H11.564Zm6.31-27.5h8.251v-.459c0-1.149-.4-2.124-1.2-2.924-.8-.8-1.776-1.2-2.925-1.2-1.15 0-2.124.4-2.925 1.2-.8.8-1.2 1.775-1.2 2.924v.459Zm9.626 8.25c.39 0 .717-.132.98-.395a1.33 1.33 0 0 0 .395-.98v-4.125h-2.75v4.125c0 .39.132.717.395.98s.59.395.98.395Zm-11 0c.39 0 .717-.132.98-.395a1.33 1.33 0 0 0 .395-.98v-4.125h-2.75v4.125c0 .39.132.717.395.98s.59.395.98.395Z" fill="#0069B4"/>
    </symbol>

    <symbol fill="none" viewBox="0 0 44 44" id="icon-addi-whatsapp" xmlns="http://www.w3.org/2000/svg">
      <path fill="#fff" d="M0 0h44v44H0z"/>
      <g clip-path="url(#aa)">
      <path d="M22.27 38.553c-2.824 0-5.594-.746-8.046-2.166l-6.286 2.166 1.291-6.656a15.955 15.955 0 0 1-3.092-9.475c0-8.895 7.236-16.13 16.131-16.13 8.897 0 16.133 7.235 16.133 16.13s-7.236 16.13-16.13 16.13Z" fill="#fff"/>
      <path d="M22.346 39.693a17.26 17.26 0 0 1-8.65-2.33l-6.758 2.33 1.389-7.158A17.146 17.146 0 0 1 5 22.346C5 12.781 12.781 5 22.346 5c9.566 0 17.347 7.781 17.347 17.346 0 9.563-7.781 17.347-17.347 17.347Zm-8.34-5.168.524.327a14.71 14.71 0 0 0 7.816 2.258c8.144 0 14.766-6.622 14.766-14.766 0-8.141-6.622-14.764-14.766-14.764-8.14 0-14.763 6.623-14.763 14.764 0 3.312 1.085 6.452 3.137 9.075l.362.464-.758 3.91 3.682-1.268Z" fill="#0069B4"/>
      <path d="M13.589 15.681s1.019-1.78 1.848-1.881c.83-.102 1.898-.102 2.184.44.29.543 1.576 3.694 1.576 3.694s.22.543-.118 1.07c-.34.525-1.102 1.286-1.102 1.286s-.424.542 0 1.118c.424.576 1.08 1.635 2.44 2.993 1.358 1.36 3.964 2.326 3.964 2.326s.372.05.612-.187c.237-.237 1.526-1.846 1.526-1.846s.412-.533 1.099-.22c.687.313 3.66 1.796 3.66 1.796s.349.128.349.652c0 .526-.213 1.81-.647 2.243-.433.436-1.706 1.775-3.616 1.775-1.91 0-6.456-1.554-8.878-3.976-2.424-2.424-4.575-4.88-5.082-7.117-.51-2.235-.44-3.244.185-4.166Z" fill="#0069B4"/>
      </g>
      <defs>
      <clipPath id="aa">
      <path fill="#fff" transform="translate(5 5)" d="M0 0h34.83v34.83H0z"/>
      </clipPath>
      </defs>
    </symbol>

    <symbol id="icon-clock" viewBox="0 0 512 512">
        <path d="m256 93c90 0 163 73 163 163 0 90-73 163-163 163-90 0-163-73-163-163 0-90 73-163 163-163z m0 28c-75 0-135 60-135 135 0 75 60 135 135 135 75 0 135-60 135-135 0-75-60-135-135-135z m0 36c8 0 14 6 14 14l0 71 51 0c7 0 14 6 14 13 0 8-7 14-14 14l-65 0c-8 0-14-6-14-14l0-84c0-8 6-14 14-14z"/>
    </symbol>

    <symbol id="icon-store" viewBox="0 0 512 512">
        <path d="m162 99l-46 70-1 2 0 19c0 17 11 31 25 36l0 157c0 4 3 7 7 7l269 0c4 0 7-3 7-7l0-157c15-5 25-19 25-36l0-19-1-2-46-70-2-3-235 0z m9 10l221 0 43 63 0 15c0 14-10 27-24 27-14 0-26-13-26-27l-14 0c0 14-11 27-25 27-13 0-25-13-25-27l-14 0c0 14-11 27-25 27-14 0-25-13-25-27l-15 0c0 14-10 27-24 27-14 0-26-13-26-27l-14 0c0 14-10 27-24 27-14 0-26-13-26-27l0-15z m12 102c7 11 19 18 33 18 14 0 25-7 33-18 7 11 19 18 33 18 14 0 25-7 32-18 8 11 19 18 33 18 14 0 26-7 33-18 7 11 16 18 30 18l0 149-143 0 0-121c0-4-3-7-7-7l-73 0c-4 0-8 3-8 7l0 121-25 0 0-149c14 0 22-7 29-18z m111 46l0 49c0 4 3 8 7 8l76 0c4 0 7-4 7-8l0-49c0-4-3-7-7-7l-76 0c-4 0-7 3-7 7z m-100 8l57 0 0 113-57 0z m113-2l64 0 0 38-64 0z"/>
    </symbol>

    <symbol id="icon-store-sm" viewBox="0 0 512 512">
        <path d="m391 100c4 0 8 2 10 5l73 112c1 2 2 5 2 7 0 24-13 45-32 54l0 138c0 15-11 27-26 28l-2 0-320 0c-15 0-27-11-28-26l0-2 0-133c-26-4-46-27-48-56l0-3c0-2 1-5 2-7l75-112c2-3 6-5 10-5z m-271 161c-7 10-17 17-28 21l0 134c0 2 1 3 3 4l1 0 34 0 0-90c0-15 11-27 26-28l2 0 48 0c15 0 28 13 28 28l0 90 182 0c2 0 3-1 4-3l0-1 0-132c-17 0-32-8-42-20l-2-3-2 3c-10 12-25 20-42 20-18 0-33-9-44-22-9 13-23 22-40 22-16 0-31-9-40-22-11 13-26 22-44 22-18 0-34-9-44-23z m86 65l-48 0c-2 0-4 2-4 4l0 90 56 0 0-90c0-2-1-3-3-4z m158-22c15 0 28 13 28 28l0 32c0 15-13 28-28 28l-48 0c-15 0-28-13-28-28l0-32c0-15 13-28 28-28z m0 24l-48 0c-2 0-4 2-4 4l0 32c0 2 2 4 4 4l48 0c2 0 4-2 4-4l0-32c0-2-2-4-4-4z m20-204l-271 0-69 103 0 3c3 17 16 30 32 30 17 0 31-15 32-33l0-3c0-16 23-16 24 0l0 2c1 19 15 34 32 34 17 0 31-15 32-33l0-3c0-16 24-16 24 0l0 2c1 20 14 34 28 34 15 0 28-16 28-36 0-16 24-16 24 0l0 2c1 19 15 34 32 34 17 0 32-16 32-36l0-2c2-14 24-13 24 2 0 20 15 36 32 36 16 0 30-14 32-33z"/>
    </symbol>

    <symbol id="icon-restore" viewBox="0 0 512 512">
        <path d="m299 256c0-23-20-43-43-43-23 0-43 20-43 43 0 23 20 43 43 43 23 0 43-20 43-43z m-43-192c-106 0-192 86-192 192l-64 0 85 85 86-85-64 0c0-83 66-149 149-149 83 0 149 66 149 149 0 83-66 149-149 149-32 0-62-10-87-27l-30 30c33 25 73 40 117 40 106 0 192-86 192-192 0-106-86-192-192-192z"/>
    </symbol>

    <symbol id="icon-delete" viewBox="0 0 512 512">
        <path d="m128 405c0 24 19 43 43 43l170 0c24 0 43-19 43-43l0-256-256 0z m43-213l170 0 0 213-170 0z m160-107l-22-21-106 0-22 21-74 0 0 43 298 0 0-43z"/>
    </symbol>

    <symbol id="icon-phone-square" viewBox="0 0 512 512">
        <path d="m402 341c0-2 0-4 0-5-1-1-5-4-11-8-7-4-15-9-26-14l-15-9c-1 0-2-1-5-3-3-2-5-4-7-5-2-1-4-1-6-1-4 0-8 3-14 9-5 6-11 13-16 19-5 6-10 9-13 9-1 0-2 0-4-1-2 0-4-1-5-1-1-1-2-2-5-3-2-1-3-2-4-3-18-10-35-22-48-36-14-13-26-30-36-48-1-1-2-2-3-4-1-3-2-4-3-5 0-1-1-3-1-5-1-2-1-3-1-4 0-3 2-6 5-10 4-4 9-8 13-11 5-3 9-7 13-11 4-4 6-8 6-11 0-2 0-4-1-6-1-2-3-4-5-7-2-3-3-4-3-5-1-1-2-4-5-8-2-5-4-9-7-13-2-5-5-9-7-14-3-5-5-9-8-12-2-3-3-4-4-5-1 0-3 0-5 0-9 0-19 2-29 6-8 4-16 13-23 27-6 14-9 26-9 37 0 3 0 7 0 10 1 3 1 6 2 9 0 2 1 5 2 9 2 4 3 7 3 9 1 1 2 4 4 9 2 5 3 7 3 9 11 31 32 61 62 91 30 30 60 51 91 62 2 0 4 1 9 3 5 2 8 3 9 4 2 0 5 1 9 3 4 1 7 2 9 2 3 1 6 1 9 2 3 0 7 0 10 0 11 0 23-3 37-9 14-7 23-15 27-23 4-10 6-20 6-29z m73-222l0 274c0 23-8 42-24 58-16 16-35 24-58 24l-274 0c-23 0-42-8-58-24-16-16-24-35-24-58l0-274c0-23 8-42 24-58 16-16 35-24 58-24l274 0c23 0 42 8 58 24 16 16 24 35 24 58z"/>
    </symbol>

    <symbol id="icon-whatsapp" viewBox="0 0 512 512">
        <path d="m318 278c2 0 12 4 28 13 16 8 24 13 25 15 1 1 1 2 1 4 0 7-2 14-5 22-3 7-10 14-20 19-11 5-20 7-29 7-11 0-29-6-55-17-18-9-34-20-48-34-14-14-28-32-42-53-14-20-21-39-21-55l0-3c1-17 8-32 21-45 5-4 10-6 15-6 1 0 3 0 5 0 3 1 5 1 6 1 3 0 6 0 7 2 2 1 3 3 5 7 1 4 5 13 9 26 5 13 7 20 7 21 0 4-3 9-9 16-7 7-10 12-10 14 0 1 0 2 1 4 7 14 16 27 29 39 11 10 25 20 43 29 3 1 5 2 7 2 3 0 8-5 15-14 8-9 13-14 15-14z m-58 152c24 0 47-5 70-15 22-9 41-22 57-38 16-16 29-35 38-57 10-22 14-46 14-70 0-24-4-47-14-69-9-22-22-42-38-58-16-16-35-28-57-38-23-9-46-14-70-14-24 0-47 5-70 14-22 10-41 22-57 38-16 16-29 36-38 58-10 22-14 45-14 69 0 39 11 74 34 105l-23 67 69-22c31 20 63 30 99 30z m0-395c29 0 57 6 84 17 26 11 49 27 68 46 20 19 35 42 46 69 12 26 17 54 17 83 0 29-5 57-17 84-11 26-26 49-46 69-19 19-42 34-68 46-27 11-55 17-84 17-37 0-72-9-104-27l-119 38 38-116c-20-33-30-71-30-111 0-29 5-57 17-83 11-27 26-50 46-69 19-19 42-35 68-46 27-11 55-17 84-17z"/>
    </symbol>

    <symbol id="icon-share-alt" viewBox="0 0 512 512">
        <path d="m384 293c25 0 47 8 65 26 18 18 26 40 26 65 0 25-8 47-26 65-18 18-40 26-65 26-25 0-47-8-65-26-18-18-26-40-26-65 0-2 0-6 0-10l-103-51c-17 16-38 24-62 24-25 0-47-8-65-26-18-18-26-40-26-65 0-25 8-47 26-65 18-18 40-26 65-26 24 0 45 8 62 24l103-51c0-4 0-8 0-10 0-25 8-47 26-65 18-18 40-26 65-26 25 0 47 8 65 26 18 18 26 40 26 65 0 25-8 47-26 65-18 18-40 26-65 26-24 0-45-8-62-24l-103 51c0 4 0 8 0 10 0 2 0 6 0 10l103 51c17-16 38-24 62-24z"/>
    </symbol>

    <symbol id="icon-computer" viewBox="0 0 62 58">
        <g fill="none" fill-rule="evenodd">
            <path fill="#213C65" fill-rule="nonzero" stroke="#F2F5F9" stroke-width="1.4" d="M54.029 0H5.333C2.393 0 0 2.408 0 5.367v34.066c0 2.96 2.393 5.367 5.333 5.367h18.783v7.467h-7.42c-1.025 0-1.855.835-1.855 1.866 0 1.031.83 1.867 1.855 1.867h25.971c1.024 0 1.855-.836 1.855-1.867 0-1.03-.83-1.866-1.855-1.866h-7.42V44.8h18.782c2.94 0 5.333-2.408 5.333-5.367V5.367C59.362 2.407 56.97 0 54.03 0zM31.536 52.267h-3.71V44.8h3.71v7.467zm24.116-12.834c0 .901-.728 1.634-1.623 1.634H5.333c-.895 0-1.623-.733-1.623-1.634V5.367c0-.901.728-1.634 1.623-1.634H54.03c.895 0 1.623.733 1.623 1.634v34.066z" transform="translate(1 1)"/>
            <path fill="#0069B4" fill-rule="nonzero" d="M32 13h-4c-4.418 0-8 3.582-8 8s3.582 8 8 8v3.5c5-2 12-5 12-11.5 0-4.418-3.582-8-8-8zm-2 14h-2c-2.144 0-4.124-1.144-5.196-3s-1.072-4.144 0-6c1.072-1.856 3.052-3 5.196-3h4c3.314 0 6 2.686 6 6 0 3.61-2.462 5.966-8 8.48V27z" transform="translate(1 1)"/>
            <path fill="#F2F5F9" d="M30 27h-2c-2.144 0-4.124-1.144-5.196-3s-1.072-4.144 0-6c1.072-1.856 3.052-3 5.196-3h4c3.314 0 6 2.686 6 6 0 3.61-2.462 5.966-8 8.48V27z" transform="translate(1 1)"/>
            <path d="M0 0L24 0 24 24 0 24z" transform="translate(1 1) translate(18 10)"/>
        </g>
    </symbol>

    <symbol id="icon-clock-2" viewBox="0 0 56 56">
        <g fill="none">
            <path fill="#213C65" d="M27.955 0C12.541 0 0 12.541 0 27.955 0 43.37 12.541 55.911 27.955 55.911c15.415 0 27.956-12.541 27.956-27.956C55.911 12.541 43.37 0 27.955 0zm0 52.417c-13.488 0-24.46-10.973-24.46-24.462 0-13.488 10.972-24.46 24.46-24.46 13.489 0 24.462 10.972 24.462 24.46 0 13.489-10.973 24.462-24.462 24.462z"/>
            <path fill="#0069B4" d="M29.703 10.483L26.208 10.483 26.208 28.679 37.203 39.674 39.674 37.203 29.703 27.232z"/>
        </g>
    </symbol>

    <symbol id="icon-calendar" viewBox="0 0 56 56">
        <g fill="none" fill-rule="evenodd">
            <path fill="#213C65" d="M48.781 4.375H43.75V1.75C43.75.784 42.967 0 42 0s-1.75.784-1.75 1.75v2.625h-24.5V1.75C15.75.784 14.967 0 14 0s-1.75.784-1.75 1.75v2.625H7.219C3.239 4.375 0 7.613 0 11.594V48.78C0 52.761 3.238 56 7.219 56H48.78C52.761 56 56 52.762 56 48.781V11.594c0-3.98-3.238-7.219-7.219-7.219zM7.22 7.875h5.031v1.75c0 .966.783 1.75 1.75 1.75s1.75-.784 1.75-1.75v-1.75h24.5v1.75c0 .966.783 1.75 1.75 1.75s1.75-.784 1.75-1.75v-1.75h5.031c2.05 0 3.719 1.668 3.719 3.719v4.156h-49v-4.156c0-2.05 1.668-3.719 3.719-3.719zM48.78 52.5H7.22c-2.05 0-3.719-1.668-3.719-3.719V19.25h49v29.531c0 2.05-1.668 3.719-3.719 3.719z"/>
            <rect width="7" height="7" x="40" y="39" fill="#0069B4" rx="3.5"/>
        </g>
    </symbol>

    <symbol id="icon-money" viewBox="0 0 58 58">
        <g fill="none">
            <path fill="#213C65" stroke="#213C65" stroke-width=".8" d="M54.761 33.907c-.794-.794-1.87-1.24-2.994-1.24h-.247c-.07 0-.136.014-.204.017.007-.197.015-.395.015-.585.003-3.954-1.263-7.803-3.612-10.983l3.094-3.481c1.025-1.158.917-2.928-.24-3.953-.69-.61-1.636-.843-2.53-.62l-3.949.986c-.41.102-.837-.083-1.042-.452l-2.913-5.243c-.75-1.352-2.456-1.84-3.807-1.089-.126.07-.247.15-.36.238l-4.803 3.734c2.09-2.27 1.946-5.803-.323-7.894-2.27-2.09-5.803-1.945-7.893.323-.877.952-1.396 2.179-1.47 3.47-.819.214-1.496.79-1.838 1.564l-2.439 5.488-2.711-.74c-1.492-.408-3.032.471-3.44 1.963-.264.97.012 2.008.723 2.718l3.014 3.015c-2.96 4.023-4.163 9.074-3.337 14l-.255.063V33.6c0-.515-.418-.933-.933-.933H.933c-.515 0-.933.418-.933.933v21.467c0 .515.418.933.933.933H33.41c1.55 0 3.049-.551 4.23-1.555l17.122-14.552c1.653-1.653 1.653-4.333 0-5.986zM9.333 54.134H1.867v-19.6h7.466v19.6zm17.734-50.4c2.056-.005 3.726 1.658 3.73 3.714.004 1.608-1.024 3.036-2.55 3.542l-4.324-3.36c-.176-.136-.368-.25-.571-.341.095-1.985 1.728-3.548 3.715-3.555zM16.882 21.487c.324-.4.261-.988-.14-1.312-.138-.112-.306-.182-.483-.201l-3.162-3.164c-.365-.365-.364-.956 0-1.32.237-.236.58-.328.903-.241l3.485.951c.445.121.912-.1 1.099-.522l2.764-6.22c.21-.471.762-.683 1.232-.473.07.03.134.069.193.115l5.372 4.178c1.01.786 2.427.786 3.438 0l5.534-4.304c.406-.317.992-.246 1.31.16.03.038.056.078.08.12l2.912 5.244c.616 1.107 1.898 1.664 3.127 1.357l3.95-.988c.5-.124 1.006.18 1.13.68.075.3-.003.616-.208.846l-3.18 3.58c-.51.077-.861.552-.785 1.061.025.166.093.321.198.45 2.465 2.99 3.813 6.742 3.816 10.615 0 .36-.02.742-.048 1.138-.166.092-.325.195-.477.308l-9.058 6.968c-1.315 1.01-2.857 1.685-4.492 1.966l-11.881 2.035c-.535.073-1.028-.3-1.102-.835-.006-.044-.01-.09-.009-.134.002-.46.323-.858.773-.956l9.107-1.952c2.177-.465 3.564-2.605 3.1-4.782-.396-1.859-2.039-3.188-3.94-3.188h-7.029c-2.032 0-4.056.252-6.027.746l-5.091 1.274c-.143-.856-.219-1.72-.226-2.588.002-3.872 1.351-7.624 3.815-10.612zm36.614 17.035L36.43 53.024c-.844.716-1.915 1.11-3.022 1.11H11.2V37.129l7.637-1.91c1.823-.455 3.695-.686 5.574-.685h7.026c1.194.002 2.161.972 2.159 2.167-.002 1.018-.713 1.897-1.708 2.111l-9.107 1.953c-1.535.334-2.507 1.85-2.173 3.384.318 1.457 1.707 2.421 3.184 2.209l11.914-2.04c1.934-.333 3.758-1.131 5.314-2.326l9.058-6.967c.414-.318.92-.49 1.442-.491h.245c1.307 0 2.366 1.059 2.368 2.366.005.602-.223 1.184-.637 1.622z" transform="translate(1 1)"/>
            <path fill="#213C65" stroke="#213C65" stroke-width=".8" d="M45.733 0c-3.092 0-5.6 2.507-5.6 5.6.004 3.092 2.509 5.597 5.6 5.6 3.093 0 5.6-2.507 5.6-5.6 0-3.093-2.507-5.6-5.6-5.6zm0 9.334C43.671 9.334 42 7.662 42 5.6c0-2.062 1.671-3.733 3.733-3.733 2.062 0 3.734 1.671 3.734 3.733 0 2.062-1.672 3.734-3.734 3.734z" transform="translate(1 1)"/>
            <path fill="#0069B4" d="M31.733 23.334c-.515 0-.933-.418-.933-.934 0-.515.418-.933.933-.933.516 0 .934.418.934.933h1.866c-.005-1.182-.752-2.234-1.866-2.628v-2.038H30.8v2.038c-1.455.512-2.22 2.108-1.707 3.563.395 1.12 1.453 1.868 2.64 1.865.516 0 .934.418.934.934 0 .515-.418.933-.934.933-.515 0-.933-.418-.933-.933h-1.867c.005 1.182.752 2.234 1.867 2.628V30.8h1.867v-2.038c1.455-.513 2.219-2.108 1.706-3.563-.394-1.12-1.453-1.868-2.64-1.865z" transform="translate(1 1)"/>
        </g>
    </symbol>

    <symbol id="icon-gps" viewBox="0 0 512 512">
        <path d="m256 187c-38 0-69 31-69 69 0 38 31 69 69 69 38 0 69-31 69-69 0-38-31-69-69-69z m0 99c-16 0-30-14-30-30 0-16 14-30 30-30 16 0 30 14 30 30 0 16-14 30-30 30z m217-50l-41 0c-9-82-74-147-156-156l0-41c0-10-9-19-20-19-11 0-20 9-20 19l0 41c-82 9-147 74-156 156l-41 0c-10 0-19 9-19 20 0 11 9 20 19 20l41 0c9 82 74 147 156 156l0 41c0 10 9 19 20 19 11 0 20-9 20-19l0-41c82-9 147-74 156-156l41 0c10 0 19-9 19-20 0-11-9-20-19-20z m-217 158c-76 0-138-62-138-138 0-76 62-138 138-138 76 0 138 62 138 138 0 76-62 138-138 138z"/>
    </symbol>

    <symbol id="icon-phone" viewBox="0 0 32 32">
        <path d="M22.998 32c-1.033 0-2.057-0.183-3.059-0.546-4.412-1.603-8.508-4.213-11.844-7.549s-5.947-7.432-7.549-11.844c-0.515-1.418-0.667-2.882-0.452-4.351 0.202-1.376 0.735-2.712 1.541-3.863 0.81-1.156 1.89-2.118 3.123-2.781 1.315-0.707 2.75-1.066 4.266-1.066 0.471 0 0.879 0.329 0.978 0.79l1.57 7.325c0.071 0.332-0.031 0.677-0.271 0.917l-2.682 2.682c2.53 5.030 6.635 9.136 11.666 11.666l2.682-2.682c0.24-0.24 0.585-0.342 0.917-0.271l7.325 1.57c0.461 0.099 0.79 0.506 0.79 0.978 0 1.516-0.359 2.951-1.066 4.266-0.663 1.233-1.625 2.313-2.781 3.123-1.151 0.807-2.487 1.34-3.863 1.541-0.431 0.063-0.862 0.095-1.292 0.095zM8.227 2.044c-2 0.221-3.774 1.269-4.953 2.951-1.325 1.891-1.634 4.218-0.848 6.383 3.081 8.483 9.714 15.115 18.196 18.196 2.165 0.786 4.491 0.477 6.383-0.848 1.682-1.179 2.73-2.953 2.951-4.953l-5.959-1.277-2.801 2.801c-0.298 0.298-0.751 0.377-1.132 0.198-5.949-2.795-10.765-7.61-13.56-13.56-0.179-0.381-0.1-0.834 0.198-1.132l2.801-2.801z"></path>
    </symbol>

    <symbol id="icon-clock" viewBox="0 0 32 32">
        <path d="M20.586 23.414l-6.586-6.586v-8.828h4v7.172l5.414 5.414zM16 0c-8.837 0-16 7.163-16 16s7.163 16 16 16 16-7.163 16-16-7.163-16-16-16zM16 28c-6.627 0-12-5.373-12-12s5.373-12 12-12c6.627 0 12 5.373 12 12s-5.373 12-12 12z"></path>
    </symbol>

    <symbol id="icon-check" viewBox="0 0 32 32">
        <path d="M32 16c0-8.837-7.163-16-16-16s-16 7.163-16 16 7.163 16 16 16 16-7.163 16-16zM3 16c0-7.18 5.82-13 13-13s13 5.82 13 13-5.82 13-13 13-13-5.82-13-13z"></path>
        <path d="M9.914 11.086l-2.829 2.829 8.914 8.914 8.914-8.914-2.828-2.828-6.086 6.086z"></path>
    </symbol>

    <symbol id="icon-store-location" viewBox="0 0 32 32">
        <path d="M16 0c-5.523 0-10 4.477-10 10 0 10 10 22 10 22s10-12 10-22c0-5.523-4.477-10-10-10zM16 16c-3.314 0-6-2.686-6-6s2.686-6 6-6 6 2.686 6 6-2.686 6-6 6z"></path>
    </symbol>

    <symbol id="icon-checkmark" viewBox="0 0 512 512">
        <path d="m256 83c95 0 174 78 174 173 0 95-79 174-174 174-95 0-173-79-173-174 0-95 78-173 173-173z m49 111l-75 97-27-24c-9-7-24-7-31 2-9 11-7 23 2 33l46 38c9 10 23 7 32-3l90-116c8-9 5-24-4-31-11-7-26-5-33 4z"/>
    </symbol>

    <symbol id="icon-efectivo" viewBox="0 0 47 46">
        <path d="M12.5 13.5C11.9477 13.5 11.5 13.9477 11.5 14.5V26.4999C11.5 27.0522 11.9477 27.4999 12.5 27.4999H29.4999C30.0522 27.4999 30.4999 27.0522 30.4999 26.4999V14.5C30.4999 13.9477 30.0522 13.5 29.4999 13.5H12.5ZM9.5 14.5C9.5 12.8431 10.8431 11.5 12.5 11.5H29.4999C31.1567 11.5 32.4999 12.8431 32.4999 14.5V26.4999C32.4999 28.1567 31.1567 29.4999 29.4999 29.4999H12.5C10.8431 29.4999 9.5 28.1567 9.5 26.4999V14.5Z" />
        <path d="M21 18.5C19.8954 18.5 19 19.3954 19 20.5C19 21.6045 19.8954 22.5 21 22.5C22.1045 22.5 23 21.6045 23 20.5C23 19.3954 22.1045 18.5 21 18.5ZM17 20.5C17 18.2908 18.7908 16.5 21 16.5C23.2091 16.5 24.9999 18.2908 24.9999 20.5C24.9999 22.7091 23.2091 24.4999 21 24.4999C18.7908 24.4999 17 22.7091 17 20.5Z" />
        <path d="M36.4999 20.5C37.0521 20.5 37.4999 20.9477 37.4999 21.5V31.4999C37.4999 32.2956 37.1838 33.0586 36.6212 33.6212C36.0586 34.1838 35.2955 34.4999 34.4999 34.4999H16.5C15.9477 34.4999 15.5 34.0522 15.5 33.4999C15.5 32.9476 15.9477 32.4999 16.5 32.4999H34.4999C34.7651 32.4999 35.0194 32.3946 35.207 32.207C35.3945 32.0195 35.4999 31.7651 35.4999 31.4999V21.5C35.4999 20.9477 35.9476 20.5 36.4999 20.5Z" />
    </symbol>

    <symbol id="icon-contra-entrega" viewBox="0 0 32 32">
      <path d="M14.1606 5.28784C14.5108 5.28784 14.7947 5.57171 14.7947 5.92187V10.9941C14.7947 11.3442 14.5108 11.6281 14.1606 11.6281C13.8105 11.6281 13.5266 11.3442 13.5266 10.9941V5.92187C13.5266 5.57171 13.8105 5.28784 14.1606 5.28784Z"/>
      <path d="M5.28418 10.9944C5.28418 10.6442 5.56804 10.3604 5.91821 10.3604H22.4029C22.7531 10.3604 23.0369 10.6442 23.0369 10.9944V12.8696C23.0369 13.2198 22.7531 13.5037 22.4029 13.5037C22.0527 13.5037 21.7689 13.2198 21.7689 12.8696V11.6284H6.55223V21.1388C6.55223 21.307 6.61903 21.4682 6.73793 21.5871C6.85684 21.706 7.01811 21.7728 7.18626 21.7728H12.8662C13.2164 21.7728 13.5003 22.0567 13.5003 22.4069C13.5003 22.757 13.2164 23.0409 12.8662 23.0409H7.18626C6.6818 23.0409 6.19799 22.8405 5.84129 22.4838C5.48458 22.1271 5.28418 21.6433 5.28418 21.1388V10.9944Z"/>
      <path d="M10.0105 5.28805C10.016 5.28791 10.0214 5.28784 10.0268 5.28784H18.2945C18.8843 5.28815 19.4626 5.45299 19.9639 5.7638C20.4647 6.07438 20.8691 6.51841 21.1315 7.04604L21.1321 7.04727L22.9697 10.7098C23.1268 11.0227 23.0003 11.4037 22.6874 11.5608C22.3744 11.7178 21.9934 11.5914 21.8363 11.2784L19.9977 7.61374L19.9966 7.61155C19.8391 7.29465 19.5963 7.02796 19.2956 6.84147C19.0338 6.6791 18.737 6.58312 18.431 6.56089C18.3857 6.5576 10.0812 6.55593 10.0356 6.55589M10.0356 6.55589C9.69247 6.56608 9.35848 6.66891 9.06903 6.85357C8.77745 7.03957 8.5421 7.30156 8.38831 7.61134L8.38316 7.62149L6.48108 11.2862C6.31977 11.597 5.93705 11.7181 5.62626 11.5568C5.31546 11.3955 5.19428 11.0128 5.3556 10.702L7.2552 7.0421C7.51157 6.52814 7.90277 6.09345 8.38705 5.78452C8.87301 5.47451 9.4343 5.30286 10.0105 5.28805"/>
      <path d="M21.0032 16.967C21.3533 16.967 21.6372 17.2509 21.6372 17.6011V18.8386C21.6372 19.1888 21.3533 19.4727 21.0032 19.4727C20.653 19.4727 20.3691 19.1888 20.3691 18.8386V17.6011C20.3691 17.2509 20.653 16.967 21.0032 16.967Z" />
      <path d="M20.4136 19.5092C20.4074 19.5344 20.3994 19.5823 20.3994 19.6629C20.3994 19.7218 20.4146 19.7911 20.558 19.9107C20.7223 20.0476 20.9591 20.1697 21.2865 20.3334C21.2965 20.3384 21.3067 20.3435 21.3169 20.3486C21.6041 20.4921 21.9702 20.675 22.2597 20.9162C22.5803 21.1834 22.8745 21.5782 22.8745 22.1381C22.8745 22.41 22.8297 22.678 22.7016 22.9158C22.5666 23.1663 22.366 23.3335 22.1439 23.4358C21.9365 23.5314 21.7204 23.5662 21.5402 23.5819C21.3643 23.5972 21.1778 23.5972 21.0165 23.5971L21.0029 23.5971C20.6164 23.5971 20.1759 23.5423 19.8109 23.332C19.3969 23.0936 19.1313 22.6814 19.1313 22.1381C19.1313 21.7879 19.4152 21.504 19.7654 21.504C20.1155 21.504 20.3994 21.7879 20.3994 22.1381C20.3994 22.1681 20.4027 22.1862 20.405 22.1953C20.4062 22.1999 20.4072 22.2028 20.4079 22.2043C20.4085 22.2058 20.4089 22.2065 20.409 22.2067C20.4092 22.207 20.4094 22.2073 20.4099 22.2079C20.4104 22.2086 20.4115 22.2099 20.4136 22.2119C20.4177 22.2158 20.4268 22.2234 20.4438 22.2332C20.5264 22.2808 20.7047 22.3291 21.0029 22.3291C21.181 22.3291 21.3148 22.3286 21.4302 22.3186C21.5155 22.3112 21.5653 22.3002 21.5923 22.2918C21.5985 22.2667 21.6065 22.2187 21.6065 22.1381C21.6065 22.0792 21.5913 22.0099 21.4479 21.8903C21.2836 21.7534 21.0468 21.6313 20.7194 21.4676C20.7094 21.4626 20.6992 21.4575 20.689 21.4524C20.4018 21.3089 20.0357 21.126 19.7462 20.8848C19.4256 20.6176 19.1313 20.2228 19.1313 19.6629C19.1313 19.391 19.1762 19.123 19.3043 18.8852C19.4393 18.6347 19.6399 18.4675 19.862 18.3652C20.0693 18.2696 20.2855 18.2348 20.4657 18.2191C20.6416 18.2038 20.828 18.2038 20.9894 18.2039C20.9939 18.2039 20.9984 18.2039 21.0029 18.2039C21.4322 18.2039 21.8682 18.3006 22.2188 18.5236C22.5824 18.7548 22.8745 19.1437 22.8745 19.6629C22.8745 20.0131 22.5907 20.297 22.2405 20.297C21.8904 20.297 21.6065 20.0131 21.6065 19.6629C21.6065 19.6553 21.6058 19.6542 21.6043 19.6519C21.6042 19.6517 21.604 19.6514 21.6039 19.6512C21.6 19.6449 21.5839 19.6226 21.5383 19.5936C21.4413 19.5319 21.2585 19.4719 21.0029 19.4719C20.8249 19.4719 20.6911 19.4724 20.5757 19.4824C20.4904 19.4898 20.4406 19.5008 20.4136 19.5092Z"/>
      <path d="M21.0032 22.3297C21.3533 22.3297 21.6372 22.6136 21.6372 22.9637V24.2013C21.6372 24.5515 21.3533 24.8353 21.0032 24.8353C20.653 24.8353 20.3691 24.5515 20.3691 24.2013V22.9637C20.3691 22.6136 20.653 22.3297 21.0032 22.3297Z"/>
      <path d="M21.0032 16.1717C18.3915 16.1717 16.2744 18.2889 16.2744 20.9005C16.2744 23.5122 18.3915 25.6293 21.0032 25.6293C23.6148 25.6293 25.732 23.5122 25.732 20.9005C25.732 18.2889 23.6148 16.1717 21.0032 16.1717ZM15.0063 20.9005C15.0063 17.5886 17.6912 14.9037 21.0032 14.9037C24.3151 14.9037 27 17.5886 27 20.9005C27 24.2125 24.3151 26.8974 21.0032 26.8974C17.6912 26.8974 15.0063 24.2125 15.0063 20.9005Z"/>
    </symbol>

    <symbol id="icon-download-bill" viewBox="0 0 16 16" fill="none">
      <path d="M8.58587 9.63231L10.8124 7.40574L11.6411 8.23438L7.99993 11.8755L4.3588 8.23438L5.18743 7.40574L7.41399 9.63231V0.5H8.58587V9.63231Z" fill="#0069B4"/>
      <path d="M14.3281 13.7422V9.66992H15.5V13.7422C15.5 14.7114 14.7114 15.5 13.7422 15.5H2.25781C1.28855 15.5 0.5 14.7114 0.5 13.7422V9.66992H1.67188V13.7422C1.67188 14.0653 1.93473 14.3281 2.25781 14.3281H13.7422C14.0653 14.3281 14.3281 14.0653 14.3281 13.7422Z" fill="#0069B4"/>
    </symbol>
    <symbol id="icon-check-square-empty" viewBox="0 0 448 512">
        <path fill="#EAEAEA"
              d="M400 480H48c-26.51 0-48-21.49-48-48V80c0-26.51 21.49-48 48-48h352c26.51 0 48 21.49 48 48v352c0 26.51-21.49 48-48 48zm-204.686-98.059l184-184c6.248-6.248 6.248-16.379 0-22.627l-22.627-22.627c-6.248-6.248-16.379-6.249-22.628 0L184 302.745l-70.059-70.059c-6.248-6.248-16.379-6.248-22.628 0l-22.627 22.627c-6.248 6.248-6.248 16.379 0 22.627l104 104c6.249 6.25 16.379 6.25 22.628.001z"/>
    </symbol>

    <symbol id="icon-check-square" viewBox="0 0 448 512">
        <path fill="#0069B4"
              d="M400 480H48c-26.51 0-48-21.49-48-48V80c0-26.51 21.49-48 48-48h352c26.51 0 48 21.49 48 48v352c0 26.51-21.49 48-48 48zm-204.686-98.059l184-184c6.248-6.248 6.248-16.379 0-22.627l-22.627-22.627c-6.248-6.248-16.379-6.249-22.628 0L184 302.745l-70.059-70.059c-6.248-6.248-16.379-6.248-22.628 0l-22.627 22.627c-6.248 6.248-6.248 16.379 0 22.627l104 104c6.249 6.25 16.379 6.25 22.628.001z"/>
    </symbol>

    <symbol id="icon-exclamation" viewBox="0 0 512 512">
        <path d="m311 357l0 64c0 5-2 9-6 12-3 4-7 6-12 6l-74 0c-5 0-9-2-12-6-4-3-6-7-6-12l0-64c0-5 2-10 6-13 3-4 7-6 12-6l74 0c5 0 9 2 12 6 4 3 6 8 6 13z m8-302l-8 219c0 5-2 10-5 13-4 4-8 6-13 6l-74 0c-5 0-9-2-13-6-3-3-5-8-5-13l-8-219c-1-5 1-9 5-13 3-4 7-5 12-5l92 0c5 0 9 1 12 5 4 4 6 8 5 13z"/>
    </symbol>
</svg>
