<svg width="64" height="64" viewBox="0 0 64 64" fill="none" xmlns="http://www.w3.org/2000/svg">
<g clip-path="url(#clip0_12_210)">
<path fill-rule="evenodd" clip-rule="evenodd" d="M0 64H64V0H0V64Z" fill="#0069B4"/>
<path fill-rule="evenodd" clip-rule="evenodd" d="M11.0754 45.9933C11.5387 45.9933 12.1554 46.1683 12.5241 46.6502L12.5978 46.7515L13.7452 45.888L13.665 45.7796C12.9914 44.9186 11.992 44.4229 10.9383 44.4229C9.03326 44.4229 7.48737 46.0223 7.48737 47.9804C7.48737 49.9477 9.03326 51.5405 10.9383 51.5405C11.9885 51.5405 13.0058 51.0301 13.65 50.1772L13.7277 50.0754L12.5904 49.2017L12.5126 49.3238C12.2252 49.7971 11.5551 49.9635 11.0754 49.9635C10.1243 49.9635 9.37701 49.0989 9.37701 47.9804C9.37701 46.868 10.1243 45.9933 11.0754 45.9933Z" fill="white"/>
<path fill-rule="evenodd" clip-rule="evenodd" d="M18.8501 49.9629C17.9051 49.9629 17.1363 49.0764 17.1363 47.9803C17.1363 46.8807 17.9051 45.9932 18.8501 45.9932C19.7987 45.9932 20.5759 46.8807 20.5759 47.9803C20.5759 49.0764 19.7987 49.9629 18.8501 49.9629ZM18.8501 44.4228C16.8618 44.4228 15.2472 46.0222 15.2472 47.9803C15.2472 49.9481 16.8618 51.5409 18.8501 51.5409C20.8354 51.5409 22.4526 49.9481 22.4526 47.9803C22.4526 46.0222 20.8354 44.4228 18.8501 44.4228Z" fill="white"/>
<path fill-rule="evenodd" clip-rule="evenodd" d="M34.3554 49.9629C33.4083 49.9629 32.6376 49.0764 32.6376 47.9803C32.6376 46.8807 33.4083 45.9932 34.3554 45.9932C35.3054 45.9932 36.0766 46.8807 36.0766 47.9803C36.0766 49.0764 35.3054 49.9629 34.3554 49.9629ZM34.3554 44.4228C32.3646 44.4228 30.749 46.0222 30.749 47.9803C30.749 49.9481 32.3646 51.5409 34.3554 51.5409C36.3377 51.5409 37.9528 49.9481 37.9528 47.9803C37.9528 46.0222 36.3377 44.4228 34.3554 44.4228Z" fill="white"/>
<path fill-rule="evenodd" clip-rule="evenodd" d="M43.2861 44.5209C43.2557 44.5311 43.3888 44.4975 43.3888 44.4975C43.6279 44.443 43.8062 44.4323 43.9976 44.4237C44.1037 44.4181 44.2133 44.4237 44.3039 44.4344C45.932 44.5524 47.0555 45.8567 47.0555 47.6921V51.4003H45.245V47.7262C45.245 46.5594 44.5276 46.0353 43.8112 46.0353C43.0659 46.0353 42.2394 46.6393 42.2394 47.4545V51.4003H40.43V44.5596L40.6696 44.73C40.9576 44.8949 41.2998 44.9977 41.6575 44.9977C41.948 44.9977 42.2798 44.9239 42.5359 44.8064C42.5359 44.8064 43.0844 44.5794 43.2861 44.5209Z" fill="white"/>
<path fill-rule="evenodd" clip-rule="evenodd" d="M52.8095 49.9629C51.9526 49.9629 51.2521 49.0764 51.2521 47.9803C51.2521 46.8807 51.9526 45.9932 52.8095 45.9932C53.6803 45.9932 54.3843 46.8807 54.3843 47.9803C54.3843 49.0764 53.6803 49.9629 52.8095 49.9629ZM54.1596 51.1119C54.4017 51.0117 54.6672 50.948 54.9497 50.948C55.4225 50.948 55.8599 51.118 56.2017 51.4076L56.2042 44.5597L55.9745 44.7307C55.6781 44.8945 55.3378 44.9978 54.9806 44.9978C54.6832 44.9978 54.3489 44.9241 54.1028 44.806C54.1028 44.806 54.052 44.7811 53.9812 44.7516C53.9299 44.7358 53.6375 44.6019 53.5473 44.5653C53.5309 44.5653 53.4083 44.5302 53.3655 44.518C53.3655 44.518 53.0177 44.4406 52.8324 44.4325C52.7726 44.4289 52.7218 44.4228 52.665 44.4228H52.6391H52.6535H52.6311C50.8227 44.4228 49.3595 46.0222 49.3595 47.9803C49.3894 49.9731 50.8227 51.5409 52.6311 51.5409C53.0855 51.5409 53.5174 51.4391 53.918 51.2432L54.1596 51.1119Z" fill="white"/>
<path fill-rule="evenodd" clip-rule="evenodd" d="M26.6489 47.4543C26.6489 46.8941 27.05 46.4137 27.583 46.3145C27.6428 46.3048 28.4235 46.171 28.8958 46.7852V44.4754C28.8958 44.4754 28.6118 44.423 28.3234 44.423C27.8914 44.4179 27.4515 44.5309 27.05 44.7299L26.8871 44.8143C26.639 44.9334 26.3595 44.998 26.0675 44.998C25.7024 44.998 25.3661 44.8952 25.0761 44.7227L24.8415 44.5599V51.3996H26.6489V47.4543Z" fill="white"/>
</g>
<defs>
<clipPath id="clip0_12_210">
<rect width="64" height="64" fill="white"/>
</clipPath>
</defs>
</svg>
