<svg width="48" height="48" viewBox="0 0 48 48" fill="none" xmlns="http://www.w3.org/2000/svg">
<path d="M30 27.3135C30.8284 27.3135 31.5 26.642 31.5 25.8135C31.5 24.9851 30.8284 24.3135 30 24.3135C29.1716 24.3135 28.5 24.9851 28.5 25.8135C28.5 26.642 29.1716 27.3135 30 27.3135Z" fill="#0069B4"/>
<path d="M37.5 10.8135C37.5 8.45354 35.38 6.66354 33.06 7.05354L10.5 10.8135C8.01 10.8135 6 12.8235 6 15.3135V36.3135C6 38.8035 8.01 40.8135 10.5 40.8135H37.5C39.99 40.8135 42 38.8035 42 36.3135V15.3135C42 12.8235 39.99 10.8135 37.5 10.8135ZM40.5 30.3135H28.5C26.85 30.3135 25.5 28.9635 25.5 27.3135V24.3135C25.5 22.6635 26.85 21.3135 28.5 21.3135H40.5V30.3135ZM40.5 19.8135H28.5C26.01 19.8135 24 21.8235 24 24.3135V27.3135C24 29.8035 26.01 31.8135 28.5 31.8135H40.5V36.3135C40.5 37.9635 39.15 39.3135 37.5 39.3135H10.5C8.85 39.3135 7.5 37.9635 7.5 36.3135V15.3135C7.5 13.6635 8.85 12.3135 10.5 12.3135H37.5C39.15 12.3135 40.5 13.6635 40.5 15.3135V19.8135Z" fill="#0069B4"/>
</svg>
