<svg width="48" height="48" viewBox="0 0 48 48" fill="none" xmlns="http://www.w3.org/2000/svg">
<g clip-path="url(#clip0_9_518)">
<path d="M33.5979 26.9845C33.52 26.9471 30.6039 25.5111 30.0857 25.3246C29.8741 25.2487 29.6475 25.1745 29.4065 25.1745C29.0127 25.1745 28.6819 25.3708 28.4243 25.7562C28.133 26.1892 27.2512 27.22 26.9787 27.5279C26.9431 27.5685 26.8945 27.6171 26.8654 27.6171C26.8393 27.6171 26.388 27.4313 26.2514 27.3719C23.1232 26.0131 20.7488 22.7454 20.4232 22.1944C20.3767 22.1152 20.3748 22.0792 20.3744 22.0792C20.3858 22.0372 20.491 21.9318 20.5453 21.8774C20.7041 21.7202 20.8762 21.5131 21.0427 21.3127C21.1216 21.2178 21.2005 21.1227 21.278 21.0331C21.5196 20.7521 21.6271 20.5339 21.7518 20.2811L21.8171 20.1498C22.1216 19.545 21.8616 19.0347 21.7775 18.8698C21.7086 18.7319 20.4773 15.7602 20.3464 15.448C20.0316 14.6947 19.6156 14.3439 19.0375 14.3439C18.9839 14.3439 19.0375 14.3439 18.8126 14.3534C18.5387 14.3649 17.0471 14.5613 16.3877 14.977C15.6883 15.4179 14.5052 16.8234 14.5052 19.295C14.5052 21.5196 15.9169 23.62 16.523 24.4188C16.538 24.4389 16.5657 24.4798 16.6058 24.5385C18.927 27.9284 21.8206 30.4406 24.754 31.6124C27.578 32.7405 28.9153 32.8709 29.6756 32.8709C29.6757 32.8709 29.6757 32.8709 29.6757 32.8709C29.9952 32.8709 30.2509 32.8458 30.4765 32.8236L30.6196 32.81C31.5952 32.7235 33.7391 31.6126 34.2267 30.2574C34.6109 29.19 34.7122 28.0237 34.4566 27.6005C34.2816 27.3127 33.9799 27.1679 33.5979 26.9845Z" fill="#0069B4"/>
<path d="M24.3553 4C13.522 4 4.70853 12.7473 4.70853 23.4991C4.70853 26.9766 5.63918 30.3807 7.40216 33.3599L4.02775 43.3138C3.96489 43.4994 4.01164 43.7045 4.14892 43.8443C4.24801 43.9455 4.38242 44 4.51969 44C4.57229 44 4.62528 43.9921 4.67697 43.9756L15.0562 40.6774C17.8964 42.1949 21.1066 42.996 24.3554 42.996C35.1876 42.9961 44.0002 34.2497 44.0002 23.4991C44.0002 12.7473 35.1876 4 24.3553 4ZM24.3553 40.9343C21.2983 40.9343 18.3374 40.0516 15.7922 38.3814C15.7066 38.3252 15.6072 38.2964 15.5072 38.2964C15.4544 38.2964 15.4014 38.3044 15.3498 38.3208L8.15047 39.9735L9.82892 33.0217C9.8832 32.8614 9.85606 32.6847 9.75606 32.5481C7.81788 29.8997 6.79333 26.7708 6.79333 23.4991C6.79333 14.987 15.7744 6.06182 24.3552 6.06182C32.9349 6.06182 41.9151 14.987 41.9151 23.4991C41.9153 32.0101 32.9351 40.9343 24.3553 40.9343Z" fill="#0069B4"/>
</g>
<defs>
<clipPath id="clip0_9_518">
<rect width="40" height="40" fill="white" transform="translate(4 4)"/>
</clipPath>
</defs>
</svg>
