<svg width="38" height="38" viewBox="0 0 38 38" fill="none" xmlns="http://www.w3.org/2000/svg">
<path fill-rule="evenodd" clip-rule="evenodd" d="M19.24 12.667C20.476 12.672 26.124 12.714 27.66 13.092C28.614 13.326 29.365 14.016 29.62 14.892C30.052 16.373 30.081 19.358 30.083 19.749V19.835C30.081 20.225 30.053 23.21 29.621 24.692C29.365 25.567 28.614 26.257 27.661 26.492C26.085 26.879 20.191 26.913 19.156 26.916H18.845C17.809 26.913 11.915 26.879 10.34 26.492C9.38599 26.257 8.63499 25.567 8.37999 24.692C7.94799 23.21 7.91899 20.226 7.91699 19.835V19.749C7.91899 19.358 7.94699 16.373 8.37899 14.892C8.63499 14.016 9.38599 13.326 10.339 13.092C11.876 12.714 17.524 12.672 18.76 12.667H19.24ZM17.417 17.417V22.167L22.167 19.792L17.417 17.417Z" fill="#0069B4"/>
</svg>
