<svg width="1200" height="630" viewBox="0 0 1200 630" fill="none" xmlns="http://www.w3.org/2000/svg">
<rect width="1200" height="630" fill="#0069B4"/>
<path fill-rule="evenodd" clip-rule="evenodd" d="M699.274 483.262C703.183 483.262 708.387 484.739 711.497 488.805L712.12 489.66L721.8 482.373L721.123 481.459C715.44 474.194 707.008 470.012 698.118 470.012C682.043 470.012 669 483.507 669 500.029C669 516.628 682.043 530.066 698.118 530.066C706.979 530.066 715.562 525.76 720.997 518.564L721.653 517.705L712.056 510.333L711.401 511.364C708.975 515.357 703.322 516.761 699.274 516.761C691.249 516.761 684.944 509.466 684.944 500.029C684.944 490.643 691.249 483.262 699.274 483.262Z" fill="white"/>
<path fill-rule="evenodd" clip-rule="evenodd" d="M764.873 516.756C756.899 516.756 750.413 509.276 750.413 500.028C750.413 490.749 756.899 483.261 764.873 483.261C772.877 483.261 779.434 490.749 779.434 500.028C779.434 509.276 772.877 516.756 764.873 516.756ZM764.873 470.011C748.097 470.011 734.473 483.506 734.473 500.028C734.473 516.631 748.097 530.07 764.873 530.07C781.624 530.07 795.269 516.631 795.269 500.028C795.269 483.506 781.624 470.011 764.873 470.011Z" fill="white"/>
<path fill-rule="evenodd" clip-rule="evenodd" d="M895.699 516.756C887.708 516.756 881.205 509.276 881.205 500.028C881.205 490.749 887.708 483.261 895.699 483.261C903.715 483.261 910.222 490.749 910.222 500.028C910.222 509.276 903.715 516.756 895.699 516.756ZM895.699 470.011C878.902 470.011 865.27 483.506 865.27 500.028C865.27 516.631 878.902 530.07 895.699 530.07C912.425 530.07 926.053 516.631 926.053 500.028C926.053 483.506 912.425 470.011 895.699 470.011Z" fill="white"/>
<path fill-rule="evenodd" clip-rule="evenodd" d="M971.052 470.839C970.796 470.925 971.918 470.641 971.918 470.641C973.936 470.182 975.44 470.092 977.055 470.019C977.95 469.971 978.875 470.019 979.64 470.109C993.377 471.105 1002.86 482.109 1002.86 497.596V528.884H987.58V497.884C987.58 488.039 981.527 483.616 975.482 483.616C969.194 483.616 962.22 488.713 962.22 495.591V528.884H946.953V471.165L948.975 472.603C951.405 473.994 954.293 474.862 957.311 474.862C959.761 474.862 962.561 474.239 964.721 473.247C964.721 473.247 969.35 471.332 971.052 470.839Z" fill="white"/>
<path fill-rule="evenodd" clip-rule="evenodd" d="M1051.41 516.756C1044.18 516.756 1038.27 509.276 1038.27 500.028C1038.27 490.749 1044.18 483.261 1051.41 483.261C1058.75 483.261 1064.69 490.749 1064.69 500.028C1064.69 509.276 1058.75 516.756 1051.41 516.756ZM1062.8 526.45C1064.84 525.605 1067.08 525.068 1069.46 525.068C1073.45 525.068 1077.14 526.502 1080.03 528.945L1080.05 471.166L1078.11 472.609C1075.61 473.991 1072.74 474.863 1069.72 474.863C1067.21 474.863 1064.39 474.241 1062.32 473.244C1062.32 473.244 1061.89 473.034 1061.29 472.785C1060.86 472.652 1058.39 471.523 1057.63 471.214C1057.49 471.214 1056.46 470.917 1056.1 470.814C1056.1 470.814 1053.16 470.162 1051.6 470.093C1051.09 470.063 1050.67 470.011 1050.19 470.011H1049.97H1050.09H1049.9C1034.64 470.011 1022.3 483.506 1022.3 500.028C1022.55 516.841 1034.64 530.07 1049.9 530.07C1053.73 530.07 1057.38 529.211 1060.76 527.558L1062.8 526.45Z" fill="white"/>
<path fill-rule="evenodd" clip-rule="evenodd" d="M830.676 495.59C830.676 490.863 834.06 486.81 838.558 485.972C839.062 485.891 845.649 484.762 849.634 489.944V470.455C849.634 470.455 847.238 470.013 844.804 470.013C841.16 469.97 837.448 470.923 834.06 472.602L832.685 473.315C830.592 474.32 828.234 474.865 825.77 474.865C822.689 474.865 819.852 473.998 817.406 472.542L815.426 471.168V528.878H830.676V495.59Z" fill="white"/>
</svg>
