<svg width="38" height="38" viewBox="0 0 38 38" fill="none" xmlns="http://www.w3.org/2000/svg">
<path d="M19 9.98202C21.9371 9.98202 22.285 9.9932 23.4449 10.0461C24.5174 10.0951 25.0998 10.2743 25.4875 10.4249C26.0009 10.6244 26.3674 10.8628 26.7523 11.2477C27.1372 11.6326 27.3756 11.9991 27.5751 12.5125C27.7257 12.9002 27.9049 13.4826 27.9539 14.5551C28.0068 15.715 28.018 16.0629 28.018 19C28.018 21.9372 28.0068 22.285 27.9539 23.4449C27.9049 24.5174 27.7257 25.0999 27.5751 25.4875C27.3756 26.0009 27.1372 26.3674 26.7523 26.7523C26.3674 27.1372 26.0009 27.3756 25.4875 27.5751C25.0998 27.7258 24.5174 27.905 23.4449 27.9539C22.2852 28.0068 21.9373 28.018 19 28.018C16.0627 28.018 15.7148 28.0068 14.5551 27.9539C13.4826 27.905 12.9001 27.7258 12.5125 27.5751C11.9991 27.3756 11.6326 27.1372 11.2477 26.7523C10.8628 26.3674 10.6244 26.0009 10.4249 25.4875C10.2742 25.0999 10.095 24.5174 10.0461 23.445C9.99316 22.285 9.98198 21.9372 9.98198 19C9.98198 16.0629 9.99316 15.715 10.0461 14.5551C10.095 13.4826 10.2742 12.9002 10.4249 12.5125C10.6244 11.9991 10.8628 11.6326 11.2477 11.2477C11.6326 10.8628 11.9991 10.6244 12.5125 10.4249C12.9001 10.2743 13.4826 10.0951 14.555 10.0461C15.715 9.9932 16.0628 9.98202 19 9.98202ZM19 8C16.0125 8 15.638 8.01266 14.4647 8.0662C13.2938 8.11964 12.4943 8.30556 11.7945 8.57751C11.0712 8.85862 10.4577 9.23475 9.84623 9.84627C9.2347 10.4578 8.85858 11.0712 8.57746 11.7946C8.30552 12.4943 8.1196 13.2939 8.06615 14.4648C8.01262 15.638 8 16.0126 8 19C8 21.9875 8.01262 22.3621 8.06615 23.5353C8.1196 24.7062 8.30552 25.5057 8.57746 26.2055C8.85858 26.9288 9.2347 27.5423 9.84623 28.1538C10.4577 28.7653 11.0712 29.1414 11.7945 29.4225C12.4943 29.6945 13.2938 29.8804 14.4647 29.9338C15.638 29.9874 16.0125 30 19 30C21.9874 30 22.362 29.9874 23.5352 29.9338C24.7061 29.8804 25.5057 29.6945 26.2054 29.4225C26.9288 29.1414 27.5422 28.7653 28.1537 28.1538C28.7653 27.5423 29.1414 26.9288 29.4225 26.2055C29.6944 25.5057 29.8804 24.7062 29.9338 23.5353C29.9873 22.3621 30 21.9875 30 19C30 16.0126 29.9873 15.638 29.9338 14.4648C29.8804 13.2939 29.6944 12.4943 29.4225 11.7946C29.1414 11.0712 28.7653 10.4578 28.1537 9.84627C27.5422 9.23475 26.9288 8.85862 26.2054 8.57751C25.5057 8.30556 24.7061 8.11964 23.5352 8.0662C22.362 8.01266 21.9874 8 19 8ZM19 13.3514C15.8803 13.3514 13.3513 15.8804 13.3513 19C13.3513 22.1197 15.8803 24.6487 19 24.6487C22.1196 24.6487 24.6486 22.1197 24.6486 19C24.6486 15.8804 22.1196 13.3514 19 13.3514ZM19 22.6667C16.9749 22.6667 15.3333 21.0251 15.3333 19C15.3333 16.975 16.9749 15.3333 19 15.3333C21.025 15.3333 22.6667 16.975 22.6667 19C22.6667 21.0251 21.025 22.6667 19 22.6667ZM26.1918 13.1282C26.1918 13.8572 25.6008 14.4482 24.8718 14.4482C24.1428 14.4482 23.5518 13.8572 23.5518 13.1282C23.5518 12.3992 24.1428 11.8082 24.8718 11.8082C25.6008 11.8082 26.1918 12.3992 26.1918 13.1282Z" fill="#0069B4"/>
</svg>
