<svg width="38" height="38" viewBox="0 0 38 38" fill="none" xmlns="http://www.w3.org/2000/svg">
<path fill-rule="evenodd" clip-rule="evenodd" d="M13.73 20.734C14.025 20.854 14.29 20.739 14.377 20.416C14.436 20.193 14.577 19.629 14.64 19.394C14.728 19.074 14.694 18.963 14.454 18.684C13.934 18.08 13.602 17.297 13.602 16.187C13.602 12.97 16.044 10.089 19.964 10.089C23.434 10.089 25.341 12.178 25.341 14.969C25.341 18.64 23.692 21.739 21.244 21.739C19.892 21.739 18.88 20.637 19.204 19.287C19.594 17.673 20.344 15.932 20.344 14.767C20.344 13.726 19.777 12.856 18.603 12.856C17.22 12.856 16.11 14.266 16.11 16.152C16.11 17.353 16.522 18.167 16.522 18.167L14.86 25.104C14.366 27.164 14.785 29.688 14.821 29.944C14.843 30.094 15.039 30.13 15.129 30.017C15.256 29.852 16.902 27.85 17.461 25.85C17.621 25.283 18.371 22.35 18.371 22.35C18.82 23.194 20.131 23.936 21.527 23.936C25.682 23.936 28.5 20.206 28.5 15.211C28.5 11.434 25.254 7.91699 20.319 7.91699C14.179 7.91699 11.083 12.254 11.083 15.871C11.083 18.061 11.924 20.009 13.729 20.734" fill="#0069B4"/>
</svg>
