<svg width="48" height="48" viewBox="0 0 48 48" fill="none" xmlns="http://www.w3.org/2000/svg">
<g clip-path="url(#clip0_9_661)">
<path d="M36.5 7H11.5C9.01 7 7 9.01 7 11.5V36.5C7 38.99 9.01 41 11.5 41H36.5C38.99 41 41 38.99 41 36.5V11.5C41 9.01 38.99 7 36.5 7ZM9 36.5V11.5C9 10.12 10.12 9 11.5 9H17V20.99C17 21.88 17.73 22.49 18.51 22.49C18.82 22.49 19.13 22.4 19.41 22.19L23.1 19.41C23.37 19.21 23.68 19.11 24 19.11C24.32 19.11 24.64 19.21 24.9 19.41L28.59 22.19C28.87 22.4 29.18 22.49 29.49 22.49C30.27 22.49 31 21.88 31 20.99V9H36.5C37.88 9 39 10.12 39 11.5V36.5C39 37.88 37.88 39 36.5 39H11.5C10.12 39 9 37.88 9 36.5Z" fill="#0069B4"/>
</g>
<defs>
<clipPath id="clip0_9_661">
<rect width="34" height="34" fill="white" transform="translate(7 7)"/>
</clipPath>
</defs>
</svg>
