<svg width="48" height="48" viewBox="0 0 48 48" fill="none" xmlns="http://www.w3.org/2000/svg">
<path d="M18.1 23.0423L22.677 18.4654L18.5231 14.3115L16.1231 16.7308L14.5231 15.1308L16.9424 12.7308L12.7693 8.58848L8.19231 13.1654L18.1 23.0423ZM34.7846 39.7884L39.3615 35.1807L35.1884 31.0076L32.7884 33.4269L31.1885 31.8269L33.5885 29.4269L29.5038 25.323L24.9269 29.9L34.7846 39.7884ZM13.8962 40.9999H7.00006V34.1038L16.4693 24.6346L5.00006 13.1654L12.7193 5.36548L24.2885 16.8847L33.5154 7.65773C33.7513 7.42183 34.0077 7.25324 34.2846 7.15198C34.5615 7.05068 34.8449 7.00003 35.1346 7.00003C35.4115 7.00003 35.6884 7.05068 35.9654 7.15198C36.2423 7.25324 36.4987 7.42183 36.7346 7.65773L40.3423 11.3231C40.5782 11.559 40.7435 11.8154 40.8384 12.0923C40.9333 12.3693 40.9807 12.6462 40.9807 12.9231C40.9807 13.2128 40.9333 13.4929 40.8384 13.7634C40.7435 14.034 40.5782 14.2872 40.3423 14.523L31.1538 23.7115L42.6345 35.2307L34.8846 42.9691L23.3962 31.4999L13.8962 40.9999ZM9.26926 38.7307H12.9039L32.5731 19.0307L28.9385 15.3961L9.26926 35.0961V38.7307ZM30.7462 17.2038L28.9385 15.3961L32.5731 19.0307L30.7462 17.2038Z" fill="#0069B4"/>
</svg>
