<?xml version="1.0" encoding="UTF-8"?>
<svg width="109px" height="109px" viewBox="0 0 109 109" version="1.1" xmlns="http://www.w3.org/2000/svg" xmlns:xlink="http://www.w3.org/1999/xlink">
    <!-- Generator: Sketch 57.1 (83088) - https://sketch.com -->
    <title>Brand / Logo / Main@3x</title>
    <desc>Created with Sketch.</desc>
    <g id="Brand-/-Logo-/-Main" stroke="none" stroke-width="1" fill="none" fill-rule="evenodd">
        <g id="Group-15">
            <polygon id="Fill-1" fill="#0069B4" points="0 109 109 109 109 0 0 0"></polygon>
            <g id="Group-14" transform="translate(12.000000, 75.000000)" fill="#FEFEFE">
                <path d="M6.86271515,3.33242 C7.65180606,3.33242 8.7022303,3.63055333 9.33010909,4.45128667 L9.45568485,4.62375333 L11.4097455,3.15302 L11.2731394,2.96842 C10.1259879,1.50202 8.42392727,0.657886667 6.62938182,0.657886667 C3.38477576,0.657886667 0.751927273,3.38182 0.751927273,6.71675333 C0.751927273,10.0672867 3.38477576,12.7799533 6.62938182,12.7799533 C8.41798788,12.7799533 10.1505939,11.9106867 11.2476848,10.4581533 L11.3800485,10.28482 L9.44295758,8.79675333 L9.31059394,9.00475333 C8.82101818,9.81075333 7.67980606,10.0941533 6.86271515,10.0941533 C5.24295758,10.0941533 3.9702303,8.62168667 3.9702303,6.71675333 C3.9702303,4.82222 5.24295758,3.33242 6.86271515,3.33242" id="Fill-2"></path>
                <path d="M20.1040848,10.0930267 C18.4945091,10.0930267 17.185297,8.58329333 17.185297,6.71649333 C17.185297,4.84362667 18.4945091,3.33216 20.1040848,3.33216 C21.7196,3.33216 23.0432364,4.84362667 23.0432364,6.71649333 C23.0432364,8.58329333 21.7196,10.0930267 20.1040848,10.0930267 M20.1040848,0.657626667 C16.7177818,0.657626667 13.9678424,3.38156 13.9678424,6.71649333 C13.9678424,10.0678933 16.7177818,12.78056 20.1040848,12.78056 C23.485297,12.78056 26.2394788,10.0678933 26.2394788,6.71649333 C26.2394788,3.38156 23.485297,0.657626667 20.1040848,0.657626667" id="Fill-4"></path>
                <path d="M46.5115636,10.0930267 C44.8985939,10.0930267 43.5859879,8.58329333 43.5859879,6.71649333 C43.5859879,4.84362667 44.8985939,3.33216 46.5115636,3.33216 C48.1296242,3.33216 49.4430788,4.84362667 49.4430788,6.71649333 C49.4430788,8.58329333 48.1296242,10.0930267 46.5115636,10.0930267 M46.5115636,0.657626667 C43.1210182,0.657626667 40.3693818,3.38156 40.3693818,6.71649333 C40.3693818,10.0678933 43.1210182,12.78056 46.5115636,12.78056 C49.8876848,12.78056 52.6384727,10.0678933 52.6384727,6.71649333 C52.6384727,3.38156 49.8876848,0.657626667 46.5115636,0.657626667" id="Fill-6"></path>
                <path d="M61.7216727,0.824633333 C61.6699152,0.841966667 61.8964606,0.784766667 61.8964606,0.784766667 C62.3037333,0.692033333 62.6074909,0.673833333 62.9333091,0.6591 C63.1140364,0.649566667 63.300703,0.6591 63.4551273,0.6773 C66.2279758,0.878366667 68.1413091,3.09963333 68.1413091,6.2257 L68.1413091,12.5411 L65.0579152,12.5411 L65.0579152,6.28376667 C65.0579152,4.2965 63.836097,3.40383333 62.6159758,3.40383333 C61.3466424,3.40383333 59.9390061,4.43256667 59.9390061,5.82096667 L59.9390061,12.5411 L56.8573091,12.5411 L56.8573091,0.8905 L57.2654303,1.18083333 C57.7558545,1.46163333 58.3387636,1.6367 58.9479758,1.6367 C59.4426424,1.6367 60.0077333,1.51103333 60.4438545,1.31083333 C60.4438545,1.31083333 61.3780364,0.9243 61.7216727,0.824633333" id="Fill-8"></path>
                <path d="M77.9411394,10.0930267 C76.4817455,10.0930267 75.2887758,8.58329333 75.2887758,6.71649333 C75.2887758,4.84362667 76.4817455,3.33216 77.9411394,3.33216 C79.4242909,3.33216 80.6232,4.84362667 80.6232,6.71649333 C80.6232,8.58329333 79.4242909,10.0930267 77.9411394,10.0930267 L77.9411394,10.0930267 Z M80.2405333,12.04996 C80.652897,11.8792267 81.1051394,11.7708933 81.5862303,11.7708933 C82.3914424,11.7708933 83.1364121,12.06036 83.7184727,12.5534933 L83.7227152,0.89076 L83.3315636,1.18196 C82.8267152,1.46102667 82.2472,1.63696 81.6388364,1.63696 C81.1322909,1.63696 80.5629576,1.51129333 80.1438061,1.31022667 C80.1438061,1.31022667 80.0572606,1.26776 79.9367758,1.21749333 C79.8493818,1.19062667 79.3513212,0.962693333 79.1977455,0.900293333 C79.1697455,0.900293333 78.9610182,0.840493333 78.8880485,0.819693333 C78.8880485,0.819693333 78.2958061,0.68796 77.9801697,0.674093333 C77.8783515,0.668026667 77.7918061,0.657626667 77.6950788,0.657626667 L77.6509576,0.657626667 L77.6755636,0.657626667 L77.6373818,0.657626667 C74.5573818,0.657626667 72.0653818,3.38156 72.0653818,6.71649333 C72.1162909,10.11036 74.5573818,12.78056 77.6373818,12.78056 C78.4112,12.78056 79.1468364,12.6072267 79.8290182,12.27356 L80.2405333,12.04996 Z" id="Fill-10"></path>
                <path d="M33.3865212,5.82070667 C33.3865212,4.86650667 34.0695515,4.04837333 34.9774303,3.87937333 C35.0792485,3.86290667 36.4088242,3.63497333 37.2131879,4.68104 L37.2131879,0.74724 C37.2131879,0.74724 36.7295515,0.657973333 36.2382788,0.657973333 C35.5026424,0.649306667 34.7534303,0.841706667 34.0695515,1.18057333 L33.792097,1.32444 C33.3695515,1.52724 32.8935515,1.63730667 32.3963394,1.63730667 C31.7744,1.63730667 31.2016727,1.46224 30.7078545,1.16844 L30.3082182,0.891106667 L30.3082182,12.5399733 L33.3865212,12.5399733 L33.3865212,5.82070667 Z" id="Fill-12"></path>
            </g>
        </g>
    </g>
</svg>